<?xml version="1.0" encoding="utf-8"?>
<!-- Generator: Adobe Illustrator 15.0.0, SVG Export Plug-In . SVG Version: 6.00 Build 0)  -->
<!DOCTYPE svg PUBLIC "-//W3C//DTD SVG 1.1//EN" "http://www.w3.org/Graphics/SVG/1.1/DTD/svg11.dtd">
<svg version="1.1" id="图层_1" xmlns="http://www.w3.org/2000/svg" xmlns:xlink="http://www.w3.org/1999/xlink" x="0px" y="0px"
	 width="300px" height="300px" viewBox="0 0 300 300" enable-background="new 0 0 300 300" xml:space="preserve">
<g>
	<rect x="-1" fill="#EEEEEF" width="300.307" height="300.307"/>
	
		<radialGradient id="SVGID_1_" cx="-23.8574" cy="22699.2422" r="57.9975" gradientTransform="matrix(0.7562 0.6543 -0.2626 0.3035 6031.3926 -6625.5981)" gradientUnits="userSpaceOnUse">
		<stop  offset="0" style="stop-color:#C8C9CA"/>
		<stop  offset="0.5766" style="stop-color:#DCDDDD"/>
		<stop  offset="1" style="stop-color:#E6E6E6"/>
	</radialGradient>
	<path fill="url(#SVGID_1_)" d="M36.814,265.276c18.344,15.873,40.481,23.288,59.996,21.918c6.662-13.288-5.2-38.303-28.428-58.402
		c-23.227-20.099-49.687-28.242-61.879-19.739C7.952,228.563,18.471,249.405,36.814,265.276z"/>
	<g>
		<g>
			<g>
				<path fill="#FFFFFF" d="M147.272,114.769c-49.15,0-114.574,0-114.574,0c-4.408-41.21-9.836-87.906-9.836-87.906
					c-0.412-3.843,2.388-6.656,6.228-6.259c0,0,67.243,5.122,118.183,10.385V114.769z"/>
				<path fill="#FFFFFF" d="M147.272,114.769c-49.25,0-114.579,0-114.579,0c-4.239-41.117-9.474-87.551-9.474-87.551
					c-0.396-3.814,2.393-6.617,6.205-6.235c0,0,66.992,4.94,117.848,10.001V114.769z"/>
				<path fill="#FFFFFF" d="M147.272,114.769c-49.349,0-114.584,0-114.584,0c-4.069-41.023-9.112-87.195-9.112-87.195
					c-0.379-3.787,2.399-6.578,6.183-6.211c0,0,66.741,4.759,117.514,9.618V114.769z"/>
				<path fill="#FDFDFD" d="M147.272,114.769c-49.448,0-114.59,0-114.59,0C28.783,73.84,23.933,27.93,23.933,27.93
					c-0.364-3.758,2.404-6.539,6.159-6.187c0,0,66.49,4.578,117.18,9.234V114.769z"/>
				<path fill="#FDFDFD" d="M147.272,114.769c-49.547,0-114.596,0-114.596,0c-3.73-40.836-8.387-86.484-8.387-86.484
					c-0.349-3.73,2.409-6.499,6.136-6.163c0,0,66.239,4.397,116.846,8.851V114.769z"/>
				<path fill="#FCFCFC" d="M147.272,114.769c-49.646,0-114.601,0-114.601,0c-3.561-40.742-8.024-86.128-8.024-86.128
					c-0.333-3.702,2.414-6.459,6.113-6.138c0,0,65.988,4.216,116.512,8.467V114.769z"/>
				<path fill="#FCFCFC" d="M147.272,114.769c-49.745,0-114.606,0-114.606,0c-3.391-40.648-7.662-85.772-7.662-85.772
					c-0.317-3.674,2.419-6.42,6.09-6.115c0,0,65.737,4.035,116.178,8.083V114.769z"/>
				<path fill="#FBFBFB" d="M147.272,114.769c-49.844,0-114.612,0-114.612,0c-3.221-40.554-7.299-85.417-7.299-85.417
					c-0.301-3.646,2.424-6.38,6.067-6.09c0,0,65.486,3.853,115.844,7.7V114.769z"/>
				<path fill="#FAFAFA" d="M147.272,114.769c-49.943,0-114.618,0-114.618,0c-3.051-40.46-6.936-85.062-6.936-85.062
					c-0.285-3.617,2.43-6.341,6.045-6.066c0,0,65.234,3.672,115.509,7.316V114.769z"/>
				<path fill="#FAFAFA" d="M147.272,114.769c-50.043,0-114.623,0-114.623,0c-2.882-40.367-6.574-84.706-6.574-84.706
					c-0.27-3.589,2.434-6.302,6.021-6.042c0,0,64.983,3.491,115.175,6.932V114.769z"/>
				<path fill="#F9F9F9" d="M147.272,114.769c-50.142,0-114.629,0-114.629,0c-2.712-40.273-6.211-84.351-6.211-84.351
					c-0.253-3.561,2.439-6.262,5.999-6.017c0,0,64.732,3.309,114.841,6.548V114.769z"/>
				<path fill="#F8F8F8" d="M147.272,114.769c-50.241,0-114.634,0-114.634,0C30.095,74.59,26.79,30.774,26.79,30.774
					c-0.237-3.533,2.444-6.223,5.976-5.994c0,0,64.481,3.128,114.507,6.165V114.769z"/>
				<path fill="#F8F8F8" d="M147.272,114.769c-50.34,0-114.64,0-114.64,0c-2.374-40.085-5.486-83.639-5.486-83.639
					c-0.222-3.504,2.45-6.183,5.953-5.97c0,0,64.23,2.948,114.173,5.782V114.769z"/>
				<path fill="#F7F7F7" d="M147.272,114.769c-50.438,0-114.645,0-114.645,0c-2.204-39.991-5.124-83.284-5.124-83.284
					c-0.206-3.477,2.455-6.144,5.93-5.945c0,0,63.979,2.766,113.839,5.398V114.769z"/>
				<path fill="#F6F6F6" d="M147.272,114.769c-50.538,0-114.65,0-114.65,0c-2.034-39.898-4.761-82.928-4.761-82.928
					c-0.19-3.448,2.46-6.104,5.907-5.921c0,0,63.727,2.584,113.504,5.014V114.769z"/>
				<path fill="#F6F6F6" d="M147.272,114.769c-50.637,0-114.656,0-114.656,0c-1.865-39.804-4.398-82.572-4.398-82.572
					c-0.174-3.42,2.465-6.065,5.884-5.897c0,0,63.476,2.404,113.17,4.631V114.769z"/>
				<path fill="#F5F5F5" d="M147.272,114.769c-50.736,0-114.662,0-114.662,0c-1.695-39.71-4.036-82.217-4.036-82.217
					c-0.158-3.392,2.47-6.026,5.861-5.873c0,0,63.225,2.223,112.836,4.247V114.769z"/>
				<path fill="#F4F4F5" d="M147.272,114.769c-50.835,0-114.667,0-114.667,0c-1.526-39.616-3.674-81.861-3.674-81.861
					c-0.143-3.364,2.476-5.986,5.838-5.849c0,0,62.975,2.041,112.503,3.863V114.769z"/>
				<path fill="#F4F4F4" d="M147.272,114.769c-50.935,0-114.672,0-114.672,0c-1.357-39.522-3.311-81.506-3.311-81.506
					c-0.127-3.335,2.48-5.947,5.815-5.825c0,0,62.723,1.86,112.168,3.48V114.769z"/>
				<path fill="#F3F3F3" d="M147.272,114.769c-51.034,0-114.678,0-114.678,0c-1.187-39.429-2.949-81.15-2.949-81.15
					c-0.111-3.307,2.485-5.907,5.792-5.8c0,0,62.472,1.679,111.834,3.096V114.769z"/>
				<path fill="#F2F2F3" d="M147.272,114.769c-51.133,0-114.684,0-114.684,0c-1.017-39.334-2.586-80.794-2.586-80.794
					c-0.095-3.279,2.49-5.868,5.769-5.777c0,0,62.221,1.498,111.5,2.713V114.769z"/>
				<path fill="#F2F2F2" d="M147.272,114.769c-51.232,0-114.689,0-114.689,0C31.736,75.528,30.36,34.33,30.36,34.33
					c-0.079-3.251,2.496-5.829,5.747-5.752c0,0,61.97,1.317,111.166,2.329V114.769z"/>
				<path fill="#F1F1F1" d="M147.272,114.769c-51.331,0-114.694,0-114.694,0c-0.678-39.147-1.861-80.083-1.861-80.083
					c-0.063-3.223,2.5-5.789,5.723-5.728c0,0,61.719,1.135,110.832,1.945V114.769z"/>
				<path fill="#F0F0F1" d="M147.272,114.769c-51.43,0-114.7,0-114.7,0c-0.509-39.053-1.498-79.728-1.498-79.728
					c-0.047-3.194,2.506-5.75,5.7-5.704c0,0,61.468,0.954,110.498,1.562V114.769z"/>
				<path fill="#F0F0F0" d="M147.272,114.769c-51.529,0-114.706,0-114.706,0c-0.339-38.96-1.135-79.372-1.135-79.372
					c-0.032-3.167,2.511-5.711,5.677-5.68c0,0,61.216,0.773,110.164,1.178V114.769z"/>
				<path fill="#EFEFEF" d="M147.272,114.769c-51.628,0-114.711,0-114.711,0c-0.17-38.866-0.773-79.017-0.773-79.017
					c-0.016-3.138,2.517-5.671,5.655-5.656c0,0,60.965,0.592,109.83,0.795V114.769z"/>
				<path fill="#EEEEEF" d="M147.272,114.769c-51.727,0-114.716,0-114.716,0c0-38.772-0.411-78.661-0.411-78.661
					c0-3.11,2.522-5.631,5.632-5.631c0,0,60.714,0.41,109.496,0.41V114.769z"/>
			</g>
			<g>
				<linearGradient id="SVGID_2_" gradientUnits="userSpaceOnUse" x1="60.0269" y1="26.1128" x2="196.5508" y2="211.5041">
					<stop  offset="0" style="stop-color:#E6E6E6"/>
					<stop  offset="0.0294" style="stop-color:#EAEAEA"/>
					<stop  offset="0.1347" style="stop-color:#F6F6F6"/>
					<stop  offset="0.2421" style="stop-color:#FAFAFA"/>
				</linearGradient>
				<path fill="url(#SVGID_2_)" d="M143.651,267.283L36.39,267.68c-1.217,0.005-2.386-0.477-3.249-1.335
					c-0.862-0.858-1.347-2.025-1.347-3.243V34.89c0-2.529,2.05-4.58,4.579-4.58h228.292c2.528,0,4.579,2.05,4.579,4.58v115.803
					L143.651,267.283z"/>
				<g>
					<path fill="#C8C9CA" d="M143.651,267.283H36.974c-2.53,0-4.58-2.051-4.58-4.578V34.475c0-1.436,0.673-2.701,1.708-3.541
						c-1.374,0.791-2.31,2.256-2.31,3.956v228.228c0,2.529,2.05,4.579,4.579,4.579h94.27
						C133.376,267.697,137.83,267.546,143.651,267.283z"/>
					<path fill="#FFFFFF" d="M264.665,30.31H36.372c-1.282,0-2.438,0.53-3.269,1.378c0.728-0.486,1.601-0.772,2.543-0.772h228.292
						c2.528,0,4.58,2.05,4.58,4.579v155.936c0.492-5.725,0.726-11.353,0.726-14.358v-15.885V34.89
						C269.244,32.36,267.194,30.31,264.665,30.31z"/>
				</g>
			</g>
		</g>
		<g>
			<g>
				<path fill="#EEEEEF" d="M143.803,267.132c8.738,0,19.606-0.591,26.442-3.339c9.346-3.757,84.308-35.292,84.582-35.453
					c10.722-6.353,13.837-17.539,13.837-33.754L143.803,267.132z"/>
				<path fill="#EDEDED" d="M143.803,267.132c8.738,0,19.44-0.642,26.271-3.406c8.654-3.464,84.479-35.512,84.754-35.673
					c10.722-6.353,13.83-17.539,13.83-33.753L143.803,267.132z"/>
				<path fill="#EBECEC" d="M143.803,267.132c8.738,0,19.264-0.718,26.099-3.472c7.948-3.204,84.651-35.733,84.926-35.895
					c10.722-6.353,13.822-17.539,13.822-33.753L143.803,267.132z"/>
				<path fill="#EAEAEA" d="M143.803,267.132c8.738,0,19.092-0.783,25.925-3.538c7.254-2.925,84.825-35.954,85.1-36.115
					c10.722-6.352,13.816-17.538,13.816-33.753L143.803,267.132z"/>
				<path fill="#E9EAEA" d="M143.803,267.132c8.738,0,18.92-0.85,25.753-3.604c6.558-2.645,84.997-36.174,85.271-36.335
					c10.722-6.352,13.81-17.539,13.81-33.754L143.803,267.132z"/>
				<path fill="#E8E8E8" d="M143.803,267.132c8.738,0,18.745-0.918,25.579-3.672c5.863-2.361,85.171-36.394,85.445-36.555
					c10.722-6.352,13.802-17.539,13.802-33.753L143.803,267.132z"/>
				<path fill="#E6E7E7" d="M143.803,267.132c8.738,0,18.571-0.989,25.407-3.738c5.169-2.077,85.343-36.614,85.617-36.775
					c10.722-6.352,13.794-17.539,13.794-33.753L143.803,267.132z"/>
				<path fill="#E5E5E6" d="M143.803,267.132c8.738,0,18.396-1.064,25.233-3.804c4.476-1.793,85.517-36.835,85.791-36.997
					c10.722-6.352,13.787-17.538,13.787-33.753L143.803,267.132z"/>
				<path fill="#E3E4E4" d="M143.803,267.132c8.738,0,18.217-1.146,25.061-3.871c3.783-1.505,85.689-37.054,85.964-37.216
					c10.722-6.352,13.78-17.539,13.78-33.754L143.803,267.132z"/>
				<path fill="#E2E2E3" d="M143.803,267.132c8.738,0,18.034-1.237,24.89-3.938c3.09-1.217,85.86-37.274,86.135-37.437
					c10.722-6.352,13.773-17.539,13.773-33.753L143.803,267.132z"/>
				<path fill="#E1E2E2" d="M143.803,267.132c8.738,0,17.844-1.348,24.716-4.003c2.399-0.928,86.034-37.496,86.309-37.658
					c10.722-6.352,13.767-17.539,13.767-33.753L143.803,267.132z"/>
				<path fill="#E0E0E1" d="M143.803,267.132c8.738,0,17.639-1.5,24.543-4.069c1.71-0.637,86.207-37.718,86.481-37.879
					c10.722-6.352,13.759-17.539,13.759-33.753L143.803,267.132z"/>
				<path fill="#DEDFDF" d="M143.803,267.132c8.738,0,17.389-1.784,24.37-4.137c1.024-0.345,86.38-37.937,86.654-38.098
					c10.722-6.352,13.752-17.539,13.752-33.754L143.803,267.132z"/>
				<path fill="#DDDDDE" d="M143.803,267.132c8.738,0,17.447-1.254,24.198-4.202c0.357,0.034,86.552-38.158,86.826-38.319
					c10.722-6.352,13.744-17.539,13.744-33.754L143.803,267.132z"/>
				<path fill="#DBDCDC" d="M143.803,267.132c8.738,0,17.28-1.305,24.024-4.269c-0.333,0.326,86.726-38.379,87-38.54
					c10.722-6.352,13.737-17.539,13.737-33.752L143.803,267.132z"/>
				<path fill="#DADADB" d="M143.803,267.132c8.738,0,17.114-1.355,23.852-4.336c-1.024,0.618,86.898-38.598,87.173-38.76
					c10.722-6.352,13.731-17.538,13.731-33.752L143.803,267.132z"/>
				<path fill="#D9DADA" d="M143.803,267.132c8.738,0,16.948-1.406,23.68-4.402c-1.717,0.91,87.07-38.818,87.345-38.98
					c10.722-6.351,13.724-17.538,13.724-33.753L143.803,267.132z"/>
				<path fill="#D8D8D9" d="M143.803,267.132c8.738,0,16.782-1.458,23.507-4.469c-2.408,1.202,87.243-39.038,87.518-39.2
					c10.722-6.351,13.716-17.539,13.716-33.754L143.803,267.132z"/>
				<path fill="#D6D7D7" d="M143.803,267.132c8.738,0,16.615-1.509,23.334-4.535c-3.1,1.493,87.416-39.259,87.69-39.421
					c10.722-6.351,13.709-17.539,13.709-33.753L143.803,267.132z"/>
				<path fill="#D5D5D6" d="M143.803,267.132c8.738,0,16.449-1.56,23.16-4.602c-3.789,1.785,87.59-39.479,87.864-39.642
					c10.722-6.351,13.701-17.539,13.701-33.753L143.803,267.132z"/>
				<path fill="#D3D4D4" d="M143.803,267.132c8.738,0,16.283-1.61,22.989-4.667c-4.482,2.076,87.761-39.701,88.035-39.862
					c10.722-6.352,13.693-17.539,13.693-33.754L143.803,267.132z"/>
				<path fill="#D2D2D3" d="M143.803,267.132c8.738,0,16.117-1.662,22.815-4.734c-5.173,2.368,87.935-39.92,88.209-40.081
					c10.722-6.352,13.688-17.54,13.688-33.755L143.803,267.132z"/>
			</g>
			<g>
				
					<linearGradient id="SVGID_3_" gradientUnits="userSpaceOnUse" x1="-59.2104" y1="232.1768" x2="-127.6993" y2="140.7499" gradientTransform="matrix(1 0 0 1 285.8945 0)">
					<stop  offset="0" style="stop-color:#D9D9D9"/>
					<stop  offset="0.0746" style="stop-color:#EAEAEA"/>
					<stop  offset="0.1575" style="stop-color:#F6F6F6"/>
					<stop  offset="0.2421" style="stop-color:#FAFAFA"/>
				</linearGradient>
				<path fill="url(#SVGID_3_)" d="M224.59,204.776c-25.645,23.24-40.231,62.507-80.938,62.507V142.27h125.014v46.293
					c0,16.214-3.117,27.398-13.84,33.753C246.586,227.198,227.261,224.812,224.59,204.776z"/>
				
					<linearGradient id="SVGID_4_" gradientUnits="userSpaceOnUse" x1="-59.5854" y1="209.1201" x2="-137.4093" y2="271.273" gradientTransform="matrix(1 0 0 1 285.8945 0)">
					<stop  offset="0" style="stop-color:#E6E6E6"/>
					<stop  offset="0.0518" style="stop-color:#EFEFEF"/>
					<stop  offset="0.1512" style="stop-color:#FBFBFB"/>
					<stop  offset="0.2527" style="stop-color:#FFFFFF"/>
					<stop  offset="0.6727" style="stop-color:#FFFFFF"/>
					<stop  offset="1" style="stop-color:#C8C9CA"/>
				</linearGradient>
				<path fill="url(#SVGID_4_)" d="M143.651,267.283c40.707,0,55.294-39.267,80.938-62.507l0,0l0.606-1.666
					c-10.751,9.743-20.063,22.899-30.2,34.542C180.955,253.779,165.475,267.283,143.651,267.283z"/>
				
					<linearGradient id="SVGID_5_" gradientUnits="userSpaceOnUse" x1="-56.3491" y1="213.3965" x2="-14.6775" y2="203.5129" gradientTransform="matrix(1 0 0 1 285.8945 0)">
					<stop  offset="0" style="stop-color:#CCCCCC"/>
					<stop  offset="0.0553" style="stop-color:#DCDCDC"/>
					<stop  offset="0.1471" style="stop-color:#EFEFEF"/>
					<stop  offset="0.24" style="stop-color:#FBFBFB"/>
					<stop  offset="0.3346" style="stop-color:#FFFFFF"/>
					<stop  offset="1" style="stop-color:#F2F2F2"/>
				</linearGradient>
				<path fill="url(#SVGID_5_)" d="M254.674,221.709c-8.239,4.882-27.857,2.121-29.478-18.599l0,0l-0.606,1.666
					c2.671,20.035,21.996,22.422,30.235,17.539c10.723-6.354,13.84-17.539,13.84-33.753
					C268.665,204.776,265.396,215.354,254.674,221.709z"/>
				
					<linearGradient id="SVGID_6_" gradientUnits="userSpaceOnUse" x1="-75.9575" y1="242.5674" x2="-88.695" y2="215.1074" gradientTransform="matrix(1 0 0 1 285.8945 0)">
					<stop  offset="0" style="stop-color:#D9D9D9"/>
					<stop  offset="0.0806" style="stop-color:#E9E9E9"/>
					<stop  offset="0.1924" style="stop-color:#F9F9F9"/>
					<stop  offset="0.2788" style="stop-color:#FFFFFF"/>
					<stop  offset="0.6848" style="stop-color:#FFFFFF"/>
					<stop  offset="1" style="stop-color:#D9D9D9"/>
				</linearGradient>
				<path fill="url(#SVGID_6_)" d="M166.419,262.494l87.181-39.543v0.001c-8.785,3.983-26.464,0.921-29.01-18.176
					C204.396,223.078,191.058,251.32,166.419,262.494z"/>
			</g>
		</g>
	</g>
	<g>
		<g>
			<path fill="#FFFFFF" d="M49.725,248.022c-19.707-17.052-36.29-32.689-44.343-43.7c-1.179,16.929,11.124,40.228,32.804,58.989
				c22.043,19.073,47.334,27.88,63.913,23.8C90.232,281.383,70.865,266.315,49.725,248.022z"/>
			<path fill="#FCFCFC" d="M49.673,248.104c-19.707-17.054-36.238-32.771-44.292-43.781c-1.179,16.929,11.124,40.228,32.804,58.989
				c22.043,19.073,47.334,27.88,63.913,23.8C90.232,281.383,70.813,266.396,49.673,248.104z"/>
			<path fill="#F8F8F8" d="M49.621,248.185c-19.708-17.053-36.186-32.852-44.24-43.862c-1.179,16.929,11.124,40.228,32.804,58.989
				c22.043,19.073,47.334,27.88,63.913,23.8C90.232,281.383,70.762,266.477,49.621,248.185z"/>
			<path fill="#F4F4F5" d="M49.571,248.265c-19.708-17.053-36.136-32.932-44.189-43.942c-1.179,16.929,11.124,40.228,32.804,58.989
				c22.043,19.073,47.334,27.88,63.913,23.8C90.232,281.383,70.71,266.557,49.571,248.265z"/>
			<path fill="#F1F1F1" d="M49.519,248.347c-19.707-17.053-36.084-33.014-44.138-44.024c-1.179,16.929,11.124,40.228,32.804,58.989
				c22.043,19.073,47.334,27.88,63.913,23.8C90.232,281.383,70.659,266.639,49.519,248.347z"/>
			<path fill="#EDEEEE" d="M49.468,248.427c-19.707-17.053-36.033-33.094-44.086-44.104c-1.179,16.929,11.124,40.228,32.804,58.989
				c22.043,19.073,47.334,27.88,63.913,23.8C90.232,281.383,70.608,266.719,49.468,248.427z"/>
			<path fill="#E9EAEA" d="M49.417,248.51c-19.707-17.054-35.981-33.177-44.035-44.188c-1.179,16.929,11.124,40.228,32.804,58.989
				c22.043,19.073,47.334,27.88,63.913,23.8C90.232,281.383,70.556,266.801,49.417,248.51z"/>
			<path fill="#E6E6E6" d="M49.365,248.589c-19.707-17.053-35.93-33.256-43.983-44.267c-1.179,16.929,11.124,40.228,32.804,58.989
				c22.043,19.073,47.334,27.88,63.913,23.8C90.232,281.383,70.504,266.881,49.365,248.589z"/>
			<path fill="#E2E2E3" d="M49.314,248.671c-19.708-17.053-35.879-33.338-43.933-44.349c-1.179,16.929,11.124,40.228,32.804,58.989
				c22.043,19.073,47.334,27.88,63.913,23.8C90.232,281.383,70.454,266.963,49.314,248.671z"/>
			<path fill="#DEDEDE" d="M49.262,248.751c-19.706-17.053-35.827-33.418-43.881-44.429c-1.179,16.929,11.124,40.228,32.804,58.989
				c22.043,19.073,47.334,27.88,63.913,23.8C90.232,281.383,70.403,267.043,49.262,248.751z"/>
			<path fill="#DADADB" d="M49.211,248.833c-19.707-17.054-35.776-33.5-43.83-44.511c-1.179,16.929,11.124,40.228,32.804,58.989
				c22.043,19.073,47.334,27.88,63.913,23.8C90.232,281.383,70.351,267.125,49.211,248.833z"/>
			<path fill="#D6D7D7" d="M49.16,248.914c-19.708-17.054-35.725-33.581-43.778-44.592c-1.179,16.929,11.124,40.228,32.804,58.989
				c22.043,19.073,47.334,27.88,63.913,23.8C90.232,281.383,70.3,267.205,49.16,248.914z"/>
		</g>
		<path fill="#FFFFFF" d="M49.16,248.914c-19.708-17.054-35.725-33.581-43.778-44.592c-1.179,16.929,11.124,40.228,32.804,58.989
			c22.043,19.073,47.334,27.88,63.913,23.8C90.232,281.383,70.3,267.205,49.16,248.914z"/>
		<g>
			<g>
				<defs>
					<path id="SVGID_7_" d="M48.717,249.426c-19.708-17.052-35.569-33.761-43.389-45.042c-2.224,18.138-2.3,42.521,25.923,66.94
						c28.223,24.421,53.195,21.107,70.847,15.787C89.968,281.689,69.856,267.719,48.717,249.426z"/>
				</defs>
				<clipPath id="SVGID_8_">
					<use xlink:href="#SVGID_7_"  overflow="visible"/>
				</clipPath>
				<rect x="3.028" y="204.384" clip-path="url(#SVGID_8_)" fill="#EEEEEF" width="99.07" height="91.361"/>
				
					<ellipse transform="matrix(-0.7386 -0.6742 0.6742 -0.7386 -85.1516 465.0127)" clip-path="url(#SVGID_8_)" fill="#EEEEEF" cx="47.581" cy="249.016" rx="49.135" ry="26.932"/>
				
					<ellipse transform="matrix(-0.7386 -0.6742 0.6742 -0.7386 -85.1497 465.015)" clip-path="url(#SVGID_8_)" fill="#EFEFEF" cx="47.581" cy="249.016" rx="47.169" ry="25.856"/>
				
					<ellipse transform="matrix(-0.7386 -0.6741 0.6741 -0.7386 -85.149 465.0154)" clip-path="url(#SVGID_8_)" fill="#F0F0F0" cx="47.581" cy="249.016" rx="45.204" ry="24.779"/>
				
					<ellipse transform="matrix(-0.7386 -0.6742 0.6742 -0.7386 -85.1506 465.0143)" clip-path="url(#SVGID_8_)" fill="#F0F0F1" cx="47.582" cy="249.016" rx="43.239" ry="23.701"/>
				
					<ellipse transform="matrix(-0.7386 -0.6741 0.6741 -0.7386 -85.1477 465.015)" clip-path="url(#SVGID_8_)" fill="#F1F1F1" cx="47.582" cy="249.016" rx="41.273" ry="22.623"/>
				
					<ellipse transform="matrix(-0.7386 -0.6742 0.6742 -0.7386 -85.1505 465.0145)" clip-path="url(#SVGID_8_)" fill="#F2F2F2" cx="47.581" cy="249.016" rx="39.308" ry="21.547"/>
				
					<ellipse transform="matrix(-0.7386 -0.6742 0.6742 -0.7386 -85.1497 465.015)" clip-path="url(#SVGID_8_)" fill="#F2F2F3" cx="47.581" cy="249.016" rx="37.342" ry="20.47"/>
				
					<ellipse transform="matrix(-0.7386 -0.6742 0.6742 -0.7386 -85.1506 465.0133)" clip-path="url(#SVGID_8_)" fill="#F3F3F3" cx="47.581" cy="249.016" rx="35.377" ry="19.392"/>
				
					<ellipse transform="matrix(-0.7386 -0.6741 0.6741 -0.7386 -85.1483 465.0146)" clip-path="url(#SVGID_8_)" fill="#F4F4F4" cx="47.582" cy="249.016" rx="33.412" ry="18.314"/>
				
					<ellipse transform="matrix(-0.7386 -0.6742 0.6742 -0.7386 -85.1501 465.0146)" clip-path="url(#SVGID_8_)" fill="#F4F4F5" cx="47.582" cy="249.016" rx="31.446" ry="17.237"/>
				
					<ellipse transform="matrix(-0.7386 -0.6741 0.6741 -0.7386 -85.1491 465.0152)" clip-path="url(#SVGID_8_)" fill="#F5F5F5" cx="47.582" cy="249.016" rx="29.481" ry="16.16"/>
				
					<ellipse transform="matrix(-0.7386 -0.6742 0.6742 -0.7386 -85.1504 465.0133)" clip-path="url(#SVGID_8_)" fill="#F6F6F6" cx="47.582" cy="249.016" rx="27.516" ry="15.082"/>
				
					<ellipse transform="matrix(-0.7386 -0.6742 0.6742 -0.7386 -85.1493 465.014)" clip-path="url(#SVGID_8_)" fill="#F7F7F7" cx="47.582" cy="249.016" rx="25.55" ry="14.005"/>
				
					<ellipse transform="matrix(-0.7386 -0.6742 0.6742 -0.7386 -85.1497 465.0147)" clip-path="url(#SVGID_8_)" fill="#F8F8F8" cx="47.582" cy="249.016" rx="23.585" ry="12.927"/>
				
					<ellipse transform="matrix(-0.7386 -0.6741 0.6741 -0.7386 -85.1484 465.0156)" clip-path="url(#SVGID_8_)" fill="#F8F8F8" cx="47.582" cy="249.016" rx="21.619" ry="11.85"/>
				
					<ellipse transform="matrix(-0.7386 -0.6741 0.6741 -0.7386 -85.1424 465.0182)" clip-path="url(#SVGID_8_)" fill="#F9F9F9" cx="47.582" cy="249.016" rx="19.654" ry="10.772"/>
				
					<ellipse transform="matrix(-0.7386 -0.6742 0.6742 -0.7386 -85.1488 465.0142)" clip-path="url(#SVGID_8_)" fill="#FAFAFA" cx="47.582" cy="249.016" rx="17.689" ry="9.696"/>
				
					<ellipse transform="matrix(-0.7386 -0.6742 0.6742 -0.7386 -85.1548 465.0117)" clip-path="url(#SVGID_8_)" fill="#FAFAFA" cx="47.582" cy="249.016" rx="15.723" ry="8.619"/>
				
					<ellipse transform="matrix(-0.7386 -0.6741 0.6741 -0.7386 -85.1482 465.0157)" clip-path="url(#SVGID_8_)" fill="#FBFBFB" cx="47.582" cy="249.016" rx="13.758" ry="7.542"/>
				
					<ellipse transform="matrix(-0.7386 -0.6741 0.6741 -0.7386 -85.1384 465.0207)" clip-path="url(#SVGID_8_)" fill="#FCFCFC" cx="47.582" cy="249.016" rx="11.792" ry="6.464"/>
				
					<ellipse transform="matrix(-0.7386 -0.6741 0.6741 -0.7386 -85.1414 465.02)" clip-path="url(#SVGID_8_)" fill="#FCFCFC" cx="47.582" cy="249.016" rx="9.827" ry="5.387"/>
				
					<ellipse transform="matrix(-0.7386 -0.6742 0.6742 -0.7386 -85.1553 465.0114)" clip-path="url(#SVGID_8_)" fill="#FDFDFD" cx="47.582" cy="249.016" rx="7.862" ry="4.31"/>
				
					<ellipse transform="matrix(-0.7386 -0.6742 0.6742 -0.7386 -85.1519 465.0135)" clip-path="url(#SVGID_8_)" fill="#FDFDFD" cx="47.582" cy="249.016" rx="5.896" ry="3.232"/>
				
					<ellipse transform="matrix(-0.7387 -0.6741 0.6741 -0.7387 -85.1252 465.0288)" clip-path="url(#SVGID_8_)" fill="#FFFFFF" cx="47.582" cy="249.016" rx="3.93" ry="2.154"/>
				
					<ellipse transform="matrix(-0.7387 -0.6741 0.6741 -0.7387 -85.1255 465.0297)" clip-path="url(#SVGID_8_)" fill="#FFFFFF" cx="47.582" cy="249.016" rx="1.965" ry="1.078"/>
			</g>
		</g>
	</g>
	<g>
		<g>
			<linearGradient id="SVGID_9_" gradientUnits="userSpaceOnUse" x1="161.8604" y1="28.1919" x2="143.1292" y2="28.1919">
				<stop  offset="0" style="stop-color:#90221C"/>
				<stop  offset="0.193" style="stop-color:#A1251C"/>
				<stop  offset="0.5758" style="stop-color:#CE2E1C"/>
				<stop  offset="0.5969" style="stop-color:#D12F1C"/>
				<stop  offset="0.6298" style="stop-color:#CE2D1D"/>
				<stop  offset="0.841" style="stop-color:#BD2322"/>
				<stop  offset="1" style="stop-color:#B72024"/>
			</linearGradient>
			<path fill="url(#SVGID_9_)" d="M141.672,30.295c3.128-2.626,7.164-4.208,11.567-4.208c4.404,0,8.438,1.582,11.566,4.208H141.672z
				"/>
			<linearGradient id="SVGID_10_" gradientUnits="userSpaceOnUse" x1="271.8301" y1="121.229" x2="271.8301" y2="139.6365">
				<stop  offset="0" style="stop-color:#90221C"/>
				<stop  offset="0.193" style="stop-color:#A1251C"/>
				<stop  offset="0.5758" style="stop-color:#CE2E1C"/>
				<stop  offset="0.5969" style="stop-color:#D12F1C"/>
				<stop  offset="0.6298" style="stop-color:#CE2D1D"/>
				<stop  offset="0.841" style="stop-color:#BD2322"/>
				<stop  offset="1" style="stop-color:#B72024"/>
			</linearGradient>
			<path fill="url(#SVGID_10_)" d="M269.249,117.448c3.193,3.249,5.163,7.704,5.163,12.618c0,4.915-1.97,9.37-5.163,12.619V117.448z
				"/>
		</g>
		<g>
			<path fill="#FFFFFF" d="M210.857,33.608l55.424,46.33c3.949,3.3,6.463,8.265,6.463,13.817l1.667,36.124
				c0.001,1.715-0.212,3.946-1.084,6.354c0,0,2.435-7.164-7.066-16.666c-0.001-0.001-103.172-85.978-103.172-85.978l-0.067-0.055
				c-3.112-2.568-9.15-7.061-13.5-7.061c0.933-0.182,2.163-0.386,3.718-0.386l46.08,3.337
				C203.699,29.742,207.733,30.997,210.857,33.608z"/>
			<path fill="#FFFFFF" d="M149.569,26.469c0.922-0.18,2.183-0.381,3.717-0.381l46.056,3.293c4.38,0.313,8.414,1.572,11.538,4.183
				l55.423,46.331c3.947,3.298,6.46,8.259,6.462,13.808c0.001,0.003,0.039,0.831,0.039,0.834l1.607,35.265
				c0.001,1.693-0.209,3.975-1.069,6.351c0,0,0.017-0.056,0.045-0.161c0.263-1.085,1.331-6.94-5.408-14.656
				c-0.518-0.593-1.09-1.205-1.721-1.833c-0.164-0.138-102.957-85.798-103.123-85.937c-0.001,0-0.066-0.055-0.066-0.055
				c-0.568-0.469-1.224-0.994-1.938-1.536c-0.022-0.017-0.046-0.036-0.069-0.053C157.774,29.43,153.122,26.469,149.569,26.469z"/>
			<path fill="#FFFFFF" d="M149.618,26.464c0.909-0.177,2.2-0.376,3.714-0.376l46.031,3.25c4.379,0.309,8.414,1.572,11.537,4.184
				l55.424,46.33c3.944,3.296,6.456,8.253,6.463,13.797c0,0.007,0.037,0.827,0.037,0.834l1.587,35.242
				c0.001,1.67-0.207,4.003-1.056,6.348c0,0,0.019-0.058,0.044-0.161c0.26-1.143,1.281-6.986-5.423-14.642
				c-0.51-0.585-1.083-1.196-1.721-1.829c-0.33-0.275-102.741-85.618-103.075-85.896c-0.001,0-0.066-0.054-0.066-0.055
				c-0.577-0.476-1.231-1.001-1.936-1.537c-0.022-0.017-0.046-0.035-0.068-0.053C157.825,29.406,153.181,26.464,149.618,26.464z"/>
			<path fill="#FDFDFD" d="M149.667,26.459c0.896-0.175,2.218-0.371,3.711-0.371l46.007,3.207c4.379,0.305,8.414,1.572,11.538,4.184
				l55.423,46.33c3.942,3.294,6.453,8.247,6.462,13.786c0.002,0.01,0.038,0.824,0.038,0.834l1.565,35.22
				c0.001,1.647-0.205,4.031-1.041,6.345c0,0,0.017-0.06,0.043-0.162c0.255-1.201,1.229-7.031-5.437-14.628
				c-0.504-0.578-1.078-1.188-1.723-1.825c-0.494-0.412-102.526-85.439-103.026-85.855c-0.001-0.001-0.066-0.055-0.066-0.055
				c-0.585-0.482-1.239-1.008-1.935-1.537c-0.021-0.016-0.047-0.035-0.07-0.052C157.874,29.382,153.239,26.459,149.667,26.459z"/>
			<path fill="#FDFDFD" d="M149.715,26.454c0.885-0.173,2.236-0.366,3.71-0.366l45.982,3.164c4.379,0.3,8.414,1.572,11.538,4.184
				l55.422,46.33c3.939,3.292,6.449,8.24,6.463,13.776c0,0.014,0.037,0.819,0.037,0.833l1.544,35.196
				c0.001,1.625-0.201,4.06-1.028,6.342c0,0,0.018-0.062,0.045-0.162c0.25-1.259,1.178-7.077-5.451-14.616
				c-0.497-0.57-1.072-1.179-1.726-1.821c-0.658-0.549-102.31-85.259-102.978-85.815c-0.001-0.001-0.065-0.054-0.065-0.055
				c-0.595-0.489-1.248-1.015-1.934-1.536c-0.022-0.017-0.047-0.037-0.069-0.053C157.925,29.359,153.299,26.454,149.715,26.454z"/>
			<path fill="#FCFCFC" d="M149.764,26.449c0.871-0.17,2.254-0.361,3.708-0.361l45.957,3.12c4.38,0.296,8.414,1.572,11.538,4.184
				l55.423,46.33c3.937,3.29,6.445,8.234,6.461,13.765c0.002,0.018,0.037,0.816,0.037,0.833l1.523,35.174
				c0.001,1.603-0.198,4.088-1.013,6.339c0,0,0.017-0.063,0.042-0.162c0.246-1.317,1.126-7.122-5.465-14.603
				c-0.49-0.562-1.066-1.17-1.728-1.817c-0.822-0.686-102.094-85.079-102.929-85.774c-0.001-0.001-0.065-0.054-0.066-0.055
				c-0.601-0.497-1.255-1.022-1.932-1.536c-0.021-0.016-0.047-0.036-0.068-0.053C157.975,29.335,153.356,26.449,149.764,26.449z"/>
			<path fill="#FCFCFC" d="M149.812,26.444c0.861-0.167,2.273-0.356,3.705-0.356l45.933,3.077c4.38,0.292,8.415,1.572,11.539,4.184
				l55.422,46.33c3.935,3.288,6.443,8.228,6.463,13.754c0,0.021,0.037,0.813,0.037,0.833l1.501,35.15
				c0.001,1.581-0.195,4.116-1,6.336c0,0,0.017-0.065,0.043-0.162c0.242-1.375,1.075-7.167-5.479-14.589
				c-0.484-0.554-1.062-1.162-1.729-1.813c-0.987-0.823-101.879-84.9-102.88-85.734c-0.002-0.001-0.064-0.053-0.066-0.054
				c-0.61-0.503-1.264-1.029-1.931-1.536c-0.021-0.016-0.048-0.037-0.069-0.053C158.025,29.312,153.416,26.444,149.812,26.444z"/>
			<path fill="#FBFBFB" d="M149.86,26.439c0.848-0.166,2.291-0.351,3.703-0.351l45.908,3.034c4.38,0.288,8.415,1.572,11.539,4.184
				l55.422,46.33c3.932,3.286,6.44,8.222,6.461,13.744c0.001,0.024,0.037,0.808,0.037,0.833l1.48,35.127
				c0.001,1.559-0.192,4.146-0.985,6.334c0,0,0.017-0.066,0.041-0.163c0.238-1.433,1.024-7.212-5.492-14.576
				c-0.477-0.546-1.056-1.153-1.73-1.81c-1.151-0.96-101.663-84.72-102.831-85.693c-0.002-0.001-0.064-0.053-0.066-0.055
				c-0.618-0.51-1.271-1.037-1.929-1.536c-0.021-0.016-0.049-0.037-0.069-0.053C158.075,29.288,153.476,26.439,149.86,26.439z"/>
			<path fill="#FAFAFA" d="M149.908,26.434c0.835-0.164,2.311-0.346,3.702-0.346l45.883,2.99c4.381,0.284,8.415,1.572,11.539,4.183
				l55.423,46.331c3.929,3.284,6.437,8.215,6.46,13.734c0.002,0.028,0.037,0.804,0.037,0.833l1.459,35.104
				c0.001,1.537-0.189,4.174-0.972,6.331c0,0,0.018-0.068,0.042-0.163c0.233-1.491,0.973-7.258-5.508-14.563
				c-0.47-0.539-1.049-1.144-1.731-1.806c-1.316-1.097-101.449-84.541-102.783-85.652c-0.002-0.002-0.064-0.053-0.066-0.055
				c-0.626-0.517-1.28-1.043-1.928-1.536c-0.021-0.016-0.048-0.037-0.068-0.053C158.126,29.264,153.534,26.434,149.908,26.434z"/>
			<path fill="#FAFAFA" d="M149.956,26.429c0.824-0.161,2.328-0.341,3.701-0.341l45.857,2.947c4.381,0.28,8.415,1.572,11.539,4.184
				l55.422,46.33c3.927,3.282,6.435,8.209,6.461,13.723c0.001,0.031,0.036,0.8,0.036,0.832l1.438,35.081
				c0.001,1.515-0.188,4.202-0.957,6.328c0,0,0.017-0.07,0.041-0.164c0.229-1.548,0.92-7.303-5.521-14.549
				c-0.464-0.531-1.045-1.136-1.734-1.802c-1.48-1.234-101.232-84.361-102.733-85.612c-0.003-0.002-0.064-0.053-0.067-0.055
				c-0.633-0.524-1.287-1.05-1.926-1.536c-0.021-0.016-0.049-0.037-0.069-0.053C158.176,29.24,153.592,26.429,149.956,26.429z"/>
			<path fill="#F9F9F9" d="M150.005,26.424c0.812-0.159,2.346-0.336,3.698-0.336l45.833,2.903c4.381,0.276,8.415,1.572,11.539,4.184
				l55.423,46.331c3.924,3.279,6.431,8.203,6.46,13.712c0.002,0.035,0.036,0.796,0.036,0.832l1.417,35.058
				c0.001,1.492-0.185,4.231-0.943,6.326c0,0,0.016-0.072,0.04-0.164c0.226-1.606,0.87-7.349-5.535-14.537
				c-0.457-0.523-1.039-1.126-1.735-1.798c-1.646-1.371-101.018-84.182-102.685-85.572c-0.004-0.002-0.063-0.052-0.067-0.054
				c-0.643-0.531-1.296-1.058-1.925-1.536c-0.021-0.015-0.049-0.038-0.068-0.053C158.226,29.217,153.651,26.424,150.005,26.424z"/>
			<path fill="#F8F8F8" d="M150.052,26.419c0.801-0.156,2.366-0.331,3.698-0.331l45.808,2.86c4.382,0.272,8.415,1.572,11.539,4.184
				l55.423,46.33c3.922,3.278,6.428,8.197,6.459,13.703c0.002,0.038,0.036,0.792,0.036,0.831l1.396,35.035
				c0.001,1.469-0.183,4.259-0.93,6.322c0,0,0.017-0.073,0.039-0.164c0.222-1.665,0.82-7.394-5.549-14.523
				c-0.449-0.515-1.032-1.118-1.736-1.794c-1.811-1.508-100.803-84.001-102.637-85.531c-0.004-0.002-0.063-0.052-0.066-0.055
				c-0.65-0.538-1.305-1.065-1.925-1.536c-0.019-0.015-0.049-0.038-0.068-0.053C158.274,29.193,153.71,26.419,150.052,26.419z"/>
			<path fill="#F8F8F8" d="M150.101,26.414c0.788-0.154,2.384-0.326,3.696-0.326l45.783,2.817c4.382,0.268,8.415,1.572,11.539,4.184
				l55.422,46.33c3.919,3.275,6.424,8.19,6.46,13.692c0.002,0.042,0.035,0.789,0.035,0.831l1.375,35.012
				c0.001,1.447-0.179,4.287-0.914,6.319c0,0,0.015-0.075,0.037-0.165c0.218-1.722,0.769-7.439-5.563-14.509
				c-0.442-0.508-1.026-1.109-1.738-1.791c-1.975-1.645-100.587-83.822-102.589-85.49c-0.003-0.003-0.063-0.052-0.066-0.055
				c-0.659-0.545-1.313-1.072-1.922-1.536c-0.02-0.015-0.051-0.039-0.069-0.053C158.325,29.169,153.769,26.414,150.101,26.414z"/>
			<path fill="#F7F7F7" d="M150.149,26.409c0.775-0.151,2.4-0.321,3.692-0.321l45.76,2.773c4.381,0.264,8.414,1.572,11.538,4.184
				l55.424,46.33c3.916,3.273,6.42,8.185,6.459,13.681c0.001,0.045,0.034,0.785,0.034,0.831l1.354,34.989
				c0.001,1.425-0.176,4.316-0.9,6.317c0,0,0.015-0.077,0.038-0.165c0.212-1.78,0.715-7.484-5.579-14.497
				c-0.436-0.5-1.02-1.1-1.739-1.786c-2.14-1.783-100.371-83.643-102.539-85.451c-0.004-0.003-0.063-0.051-0.066-0.054
				c-0.667-0.552-1.32-1.079-1.922-1.536c-0.02-0.015-0.049-0.039-0.067-0.053C158.375,29.146,153.827,26.409,150.149,26.409z"/>
			<path fill="#F6F6F6" d="M150.197,26.404c0.764-0.149,2.42-0.316,3.691-0.316l45.734,2.73c4.382,0.26,8.414,1.572,11.538,4.184
				l55.424,46.331c3.913,3.271,6.416,8.178,6.459,13.67c0.002,0.048,0.035,0.781,0.035,0.831l1.332,34.965
				c0.001,1.403-0.173,4.344-0.887,6.314c0,0,0.015-0.079,0.037-0.165c0.209-1.838,0.665-7.53-5.592-14.483
				c-0.429-0.492-1.015-1.092-1.742-1.783c-2.303-1.919-100.154-83.463-102.49-85.409c-0.004-0.003-0.063-0.051-0.065-0.054
				c-0.676-0.56-1.329-1.087-1.921-1.537c-0.019-0.014-0.051-0.039-0.068-0.053C158.426,29.122,153.886,26.404,150.197,26.404z"/>
			<path fill="#F6F6F6" d="M150.246,26.399c0.751-0.146,2.438-0.311,3.689-0.311l45.71,2.687c4.38,0.255,8.414,1.572,11.538,4.183
				l55.422,46.33c3.912,3.27,6.414,8.172,6.459,13.661c0.004,0.051,0.035,0.776,0.035,0.829l1.312,34.943
				c0.001,1.38-0.171,4.372-0.872,6.311c0,0,0.014-0.081,0.036-0.166c0.205-1.896,0.614-7.575-5.605-14.47
				c-0.423-0.484-1.01-1.083-1.744-1.779c-2.468-2.056-99.939-83.283-102.442-85.368c-0.004-0.003-0.062-0.051-0.065-0.054
				c-0.684-0.566-1.337-1.094-1.918-1.536c-0.02-0.014-0.051-0.039-0.069-0.053C158.476,29.099,153.945,26.399,150.246,26.399z"/>
			<path fill="#F5F5F5" d="M150.294,26.394c0.74-0.145,2.456-0.306,3.687-0.306l45.686,2.644c4.381,0.251,8.414,1.572,11.538,4.184
				l55.423,46.33c3.909,3.267,6.411,8.166,6.46,13.65c0.002,0.055,0.033,0.773,0.033,0.83l1.291,34.919
				c0.001,1.358-0.167,4.401-0.858,6.308c0,0,0.014-0.082,0.035-0.166c0.201-1.954,0.563-7.62-5.619-14.457
				c-0.416-0.476-1.003-1.075-1.745-1.774c-2.632-2.194-99.725-83.104-102.394-85.329c-0.004-0.003-0.062-0.05-0.065-0.054
				c-0.692-0.573-1.345-1.101-1.919-1.536c-0.018-0.014-0.049-0.039-0.067-0.053C158.525,29.075,154.003,26.394,150.294,26.394z"/>
			<path fill="#F4F4F5" d="M150.343,26.389c0.727-0.142,2.474-0.301,3.685-0.301l45.661,2.6c4.381,0.247,8.414,1.572,11.538,4.184
				l55.422,46.331c3.908,3.265,6.408,8.159,6.46,13.639c0.003,0.059,0.033,0.77,0.033,0.83l1.27,34.896
				c0.001,1.336-0.166,4.429-0.845,6.305c0,0,0.014-0.083,0.036-0.166c0.196-2.012,0.511-7.666-5.635-14.444
				c-0.408-0.468-0.997-1.065-1.746-1.771c-2.798-2.331-99.509-82.924-102.345-85.288c-0.005-0.003-0.062-0.05-0.066-0.054
				c-0.7-0.579-1.354-1.107-1.916-1.536c-0.019-0.014-0.051-0.039-0.069-0.053C158.576,29.051,154.063,26.389,150.343,26.389z"/>
			<path fill="#F4F4F4" d="M150.392,26.384c0.714-0.139,2.492-0.296,3.683-0.296l45.637,2.557c4.381,0.242,8.414,1.572,11.538,4.183
				l55.422,46.33c3.905,3.263,6.404,8.153,6.459,13.629c0.002,0.062,0.033,0.765,0.033,0.829l1.248,34.874
				c0.001,1.313-0.162,4.457-0.831,6.302c0,0,0.015-0.085,0.036-0.166c0.191-2.07,0.46-7.71-5.648-14.43
				c-0.402-0.461-0.992-1.057-1.749-1.767c-2.96-2.468-99.293-82.745-102.296-85.247c-0.006-0.004-0.062-0.05-0.066-0.054
				c-0.707-0.587-1.36-1.116-1.915-1.537c-0.018-0.013-0.05-0.04-0.067-0.053C158.625,29.027,154.121,26.384,150.392,26.384z"/>
			<path fill="#F3F3F3" d="M150.439,26.379c0.702-0.137,2.512-0.291,3.682-0.291l45.61,2.514c4.382,0.239,8.414,1.572,11.538,4.184
				l55.423,46.33c3.902,3.261,6.402,8.147,6.459,13.619c0.003,0.066,0.033,0.762,0.033,0.829l1.227,34.85
				c0.001,1.292-0.159,4.486-0.815,6.299c0,0,0.013-0.087,0.033-0.167c0.188-2.127,0.409-7.756-5.662-14.417
				c-0.395-0.453-0.986-1.048-1.75-1.763c-3.126-2.604-99.078-82.565-102.247-85.206c-0.006-0.004-0.062-0.05-0.066-0.054
				c-0.716-0.593-1.368-1.122-1.914-1.536c-0.017-0.013-0.05-0.04-0.067-0.053C158.676,29.004,154.181,26.379,150.439,26.379z"/>
			<path fill="#F2F2F3" d="M150.487,26.374c0.69-0.135,2.529-0.286,3.68-0.286l45.586,2.47c4.382,0.235,8.415,1.572,11.539,4.184
				l55.422,46.33c3.899,3.258,6.399,8.141,6.459,13.607c0.003,0.07,0.033,0.758,0.033,0.829l1.205,34.827
				c0.001,1.269-0.156,4.515-0.803,6.296c0,0,0.014-0.088,0.033-0.167c0.185-2.185,0.358-7.801-5.676-14.404
				c-0.389-0.445-0.979-1.039-1.752-1.759c-3.289-2.742-98.861-82.386-102.197-85.166c-0.006-0.005-0.062-0.05-0.066-0.054
				c-0.725-0.6-1.378-1.129-1.912-1.536c-0.018-0.013-0.053-0.04-0.069-0.053C158.726,28.98,154.239,26.374,150.487,26.374z"/>
			<path fill="#F2F2F2" d="M150.535,26.369c0.679-0.132,2.548-0.281,3.679-0.281l45.561,2.427c4.383,0.231,8.416,1.572,11.539,4.184
				l55.423,46.33c3.896,3.257,6.396,8.135,6.457,13.598c0.003,0.073,0.033,0.754,0.033,0.827l1.185,34.805
				c0.001,1.247-0.154,4.543-0.788,6.293c0,0,0.014-0.09,0.034-0.167c0.179-2.244,0.305-7.847-5.692-14.391
				c-0.381-0.438-0.974-1.031-1.754-1.755c-3.454-2.879-98.646-82.206-102.149-85.125c-0.004-0.004-0.061-0.049-0.064-0.054
				c-0.733-0.607-1.386-1.137-1.913-1.536c-0.016-0.013-0.051-0.041-0.066-0.053C158.776,28.957,154.298,26.369,150.535,26.369z"/>
			<path fill="#F1F1F1" d="M150.584,26.364c0.666-0.13,2.566-0.276,3.677-0.276l45.535,2.384c4.384,0.226,8.415,1.572,11.539,4.184
				l55.422,46.33c3.896,3.254,6.393,8.128,6.459,13.587c0.003,0.076,0.032,0.75,0.032,0.827l1.163,34.781
				c0.001,1.225-0.15,4.572-0.774,6.291c0,0,0.013-0.092,0.033-0.167c0.175-2.301,0.255-7.892-5.706-14.377
				c-0.373-0.43-0.967-1.021-1.755-1.751c-3.617-3.016-98.43-82.026-102.101-85.085c-0.007-0.004-0.059-0.049-0.066-0.053
				c-0.74-0.614-1.394-1.144-1.909-1.536c-0.017-0.013-0.052-0.041-0.069-0.053C158.825,28.933,154.356,26.364,150.584,26.364z"/>
			<path fill="#F0F0F1" d="M150.633,26.359c0.653-0.128,2.583-0.271,3.673-0.271l45.513,2.34c4.382,0.222,8.415,1.572,11.539,4.184
				l55.422,46.33c3.892,3.253,6.389,8.122,6.457,13.577c0.003,0.08,0.033,0.746,0.033,0.827l1.142,34.758
				c0.001,1.203-0.148,4.6-0.76,6.289c0,0,0.013-0.094,0.031-0.168c0.172-2.359,0.204-7.938-5.719-14.364
				c-0.368-0.422-0.962-1.013-1.757-1.748c-3.783-3.153-98.216-81.847-102.052-85.044c-0.007-0.005-0.059-0.049-0.066-0.054
				c-0.749-0.621-1.401-1.15-1.908-1.536c-0.017-0.012-0.053-0.041-0.068-0.053C158.876,28.909,154.415,26.359,150.633,26.359z"/>
			<path fill="#F0F0F0" d="M150.68,26.354c0.643-0.125,2.603-0.266,3.673-0.266l45.487,2.297c4.383,0.219,8.415,1.572,11.539,4.183
				l55.423,46.331c3.888,3.25,6.384,8.115,6.456,13.566c0.004,0.083,0.032,0.742,0.032,0.827l1.121,34.735
				c0.001,1.18-0.146,4.628-0.746,6.285c0,0,0.013-0.095,0.031-0.168c0.167-2.417,0.152-7.982-5.732-14.351
				c-0.361-0.414-0.957-1.005-1.76-1.744c-3.947-3.291-97.999-81.667-102.003-85.003c-0.006-0.006-0.06-0.049-0.065-0.054
				c-0.758-0.627-1.409-1.157-1.908-1.536c-0.016-0.012-0.052-0.041-0.067-0.053C158.926,28.886,154.475,26.354,150.68,26.354z"/>
			<path fill="#EFEFEF" d="M150.729,26.349c0.63-0.123,2.621-0.261,3.671-0.261l45.462,2.254c4.384,0.213,8.415,1.572,11.539,4.183
				l55.423,46.33c3.887,3.249,6.381,8.109,6.455,13.556c0.005,0.086,0.033,0.738,0.033,0.826l1.1,34.712
				c0.001,1.158-0.144,4.656-0.731,6.282c0,0,0.012-0.097,0.03-0.168c0.163-2.475,0.102-8.028-5.748-14.338
				c-0.354-0.406-0.95-0.996-1.76-1.74c-4.111-3.427-97.784-81.488-101.955-84.963c-0.006-0.005-0.059-0.048-0.065-0.054
				c-0.766-0.635-1.417-1.165-1.905-1.536c-0.016-0.012-0.053-0.042-0.069-0.053C158.977,28.862,154.532,26.349,150.729,26.349z"/>
			<path fill="#EEEEEF" d="M150.776,26.344c0.619-0.121,2.64-0.256,3.669-0.256l45.438,2.21c4.384,0.209,8.415,1.572,11.539,4.184
				l55.423,46.33c3.884,3.246,6.378,8.104,6.456,13.545c0.004,0.09,0.032,0.734,0.032,0.825l1.078,34.689
				c0.001,1.136-0.141,4.685-0.717,6.279c0,0,0.011-0.099,0.029-0.169c0.158-2.533,0.051-8.073-5.762-14.324
				c-0.347-0.398-0.945-0.987-1.762-1.736c-4.276-3.564-97.569-81.308-101.906-84.922c-0.007-0.005-0.058-0.048-0.065-0.053
				c-0.774-0.642-1.426-1.172-1.904-1.536c-0.016-0.012-0.054-0.042-0.068-0.053C159.025,28.838,154.591,26.344,150.776,26.344z"/>
			<path fill="#EDEEEE" d="M150.825,26.339c0.605-0.119,2.657-0.251,3.666-0.251l45.413,2.167c4.383,0.206,8.415,1.572,11.538,4.183
				l55.425,46.331c3.88,3.244,6.374,8.097,6.455,13.535c0.005,0.093,0.031,0.73,0.031,0.825l1.058,34.666
				c0.001,1.113-0.138,4.713-0.704,6.277c0,0,0.013-0.101,0.03-0.17c0.154-2.59-0.002-8.118-5.776-14.311
				c-0.34-0.391-0.939-0.979-1.763-1.732c-4.441-3.701-97.354-81.129-101.858-84.882c-0.007-0.006-0.058-0.048-0.064-0.054
				c-0.782-0.649-1.435-1.179-1.904-1.536c-0.015-0.011-0.054-0.042-0.068-0.053C159.076,28.814,154.65,26.339,150.825,26.339z"/>
			<path fill="#EDEDED" d="M150.874,26.334c0.594-0.116,2.675-0.246,3.664-0.246l45.389,2.124c4.383,0.202,8.414,1.572,11.538,4.183
				l55.423,46.331c3.88,3.242,6.372,8.091,6.456,13.524c0.004,0.097,0.031,0.727,0.031,0.825l1.036,34.643
				c0.001,1.091-0.134,4.742-0.689,6.274c0,0,0.012-0.103,0.028-0.169c0.151-2.648-0.052-8.164-5.79-14.298
				c-0.333-0.383-0.933-0.97-1.765-1.729c-4.605-3.838-97.139-80.949-101.809-84.841c-0.007-0.006-0.058-0.047-0.065-0.054
				c-0.789-0.655-1.441-1.186-1.902-1.535c-0.014-0.011-0.054-0.042-0.068-0.054C159.126,28.791,154.709,26.334,150.874,26.334z"/>
			<path fill="#ECECED" d="M150.922,26.329c0.581-0.113,2.694-0.241,3.663-0.241l45.363,2.08c4.384,0.198,8.414,1.572,11.538,4.184
				l55.423,46.33c3.877,3.24,6.369,8.084,6.456,13.514c0.005,0.101,0.031,0.723,0.031,0.825l1.015,34.62
				c0.001,1.069-0.132,4.771-0.676,6.271c0,0,0.011-0.104,0.028-0.17c0.146-2.707-0.104-8.209-5.804-14.285
				c-0.327-0.375-0.928-0.961-1.768-1.725c-4.769-3.975-96.921-80.769-101.759-84.8c-0.009-0.006-0.058-0.047-0.065-0.054
				c-0.799-0.663-1.451-1.193-1.902-1.536c-0.014-0.011-0.054-0.042-0.066-0.053C159.177,28.767,154.767,26.329,150.922,26.329z"/>
			<path fill="#EBECEC" d="M150.971,26.324c0.569-0.111,2.712-0.236,3.66-0.236l45.339,2.037c4.384,0.193,8.414,1.572,11.538,4.184
				l55.423,46.33c3.875,3.237,6.366,8.078,6.456,13.503c0.005,0.104,0.031,0.719,0.031,0.824l0.993,34.597
				c0.001,1.047-0.128,4.799-0.661,6.269c0,0,0.01-0.106,0.028-0.17c0.142-2.765-0.156-8.254-5.819-14.271
				c-0.319-0.368-0.922-0.952-1.769-1.721c-4.935-4.112-96.707-80.59-101.71-84.761c-0.009-0.006-0.059-0.046-0.065-0.053
				c-0.807-0.67-1.459-1.2-1.9-1.536c-0.014-0.011-0.054-0.043-0.068-0.054C159.227,28.744,154.827,26.324,150.971,26.324z"/>
			<path fill="#EBEBEB" d="M151.019,26.318c0.558-0.108,2.73-0.23,3.659-0.23l45.314,1.994c4.383,0.189,8.414,1.572,11.538,4.183
				l55.422,46.331c3.872,3.235,6.364,8.072,6.456,13.492c0.005,0.108,0.03,0.715,0.03,0.824l0.973,34.573
				c0.001,1.025-0.126,4.827-0.647,6.266c0,0,0.011-0.108,0.027-0.17c0.138-2.822-0.207-8.3-5.833-14.258
				c-0.313-0.359-0.916-0.943-1.77-1.717c-5.099-4.25-96.49-80.41-101.663-84.719c-0.008-0.007-0.057-0.047-0.064-0.054
				c-0.815-0.676-1.467-1.207-1.898-1.536c-0.015-0.01-0.055-0.043-0.068-0.053C159.276,28.72,154.886,26.318,151.019,26.318z"/>
			<path fill="#EAEAEA" d="M151.067,26.314c0.545-0.107,2.749-0.226,3.657-0.226l45.288,1.95c4.385,0.185,8.415,1.572,11.538,4.184
				l55.424,46.33c3.869,3.233,6.36,8.066,6.455,13.482c0.006,0.111,0.029,0.711,0.029,0.824l0.952,34.55
				c0.001,1.002-0.124,4.855-0.633,6.263c0,0,0.01-0.109,0.025-0.171c0.134-2.88-0.257-8.345-5.846-14.245
				c-0.306-0.351-0.91-0.935-1.771-1.713c-5.265-4.386-96.276-80.23-101.614-84.679c-0.009-0.007-0.057-0.046-0.065-0.054
				c-0.822-0.683-1.475-1.214-1.897-1.535c-0.013-0.01-0.054-0.043-0.066-0.054C159.325,28.696,154.944,26.314,151.067,26.314z"/>
			<path fill="#E9EAEA" d="M151.115,26.309c0.532-0.104,2.767-0.221,3.655-0.221l45.264,1.907c4.385,0.182,8.415,1.572,11.539,4.184
				l55.423,46.33c3.866,3.231,6.356,8.06,6.455,13.472c0.006,0.114,0.028,0.707,0.028,0.823l0.932,34.528
				c0.001,0.979-0.121,4.884-0.619,6.259c0,0,0.01-0.111,0.026-0.171c0.129-2.938-0.309-8.39-5.861-14.231
				c-0.299-0.344-0.904-0.926-1.773-1.709c-5.427-4.523-96.06-80.05-101.564-84.638c-0.01-0.007-0.057-0.046-0.065-0.053
				c-0.831-0.69-1.483-1.221-1.896-1.536c-0.014-0.01-0.056-0.043-0.069-0.053C159.376,28.672,155.003,26.309,151.115,26.309z"/>
			<path fill="#E8E9E9" d="M151.163,26.304c0.521-0.102,2.786-0.216,3.653-0.216l45.24,1.864c4.384,0.177,8.415,1.572,11.539,4.183
				l55.422,46.331c3.864,3.229,6.354,8.054,6.455,13.46c0.006,0.119,0.029,0.704,0.029,0.823l0.909,34.504
				c0.001,0.958-0.118,4.913-0.605,6.257c0,0,0.011-0.113,0.025-0.172c0.126-2.996-0.359-8.436-5.875-14.219
				c-0.292-0.335-0.897-0.917-1.774-1.705c-5.592-4.661-95.845-79.871-101.518-84.598c-0.008-0.007-0.055-0.045-0.063-0.053
				c-0.84-0.697-1.491-1.229-1.896-1.536c-0.013-0.01-0.055-0.044-0.067-0.054C159.426,28.649,155.062,26.304,151.163,26.304z"/>
			<path fill="#E8E8E8" d="M151.212,26.299c0.509-0.1,2.804-0.211,3.651-0.211l45.215,1.82c4.385,0.172,8.415,1.572,11.539,4.183
				l55.423,46.331c3.86,3.227,6.349,8.047,6.454,13.45c0.005,0.122,0.028,0.7,0.028,0.823l0.889,34.481
				c0.001,0.935-0.115,4.941-0.591,6.253c0,0,0.01-0.114,0.024-0.171c0.121-3.054-0.411-8.481-5.889-14.205
				c-0.286-0.328-0.893-0.909-1.776-1.701c-5.757-4.798-95.63-79.692-101.469-84.557c-0.009-0.008-0.055-0.046-0.064-0.054
				c-0.848-0.704-1.499-1.236-1.894-1.536c-0.013-0.01-0.056-0.044-0.067-0.053C159.477,28.625,155.121,26.299,151.212,26.299z"/>
			<path fill="#E7E7E8" d="M151.26,26.294c0.497-0.097,2.821-0.206,3.649-0.206l45.19,1.777c4.386,0.168,8.415,1.572,11.539,4.184
				l55.422,46.33c3.859,3.225,6.347,8.041,6.455,13.44c0.005,0.125,0.028,0.696,0.028,0.822l0.867,34.458
				c0.001,0.913-0.112,4.969-0.576,6.25c0,0,0.008-0.116,0.023-0.172c0.117-3.112-0.462-8.526-5.903-14.192
				c-0.278-0.32-0.887-0.9-1.777-1.698c-5.922-4.934-95.414-79.512-101.42-84.516c-0.01-0.008-0.055-0.045-0.064-0.054
				c-0.856-0.71-1.508-1.242-1.893-1.535c-0.013-0.01-0.056-0.045-0.068-0.054C159.526,28.602,155.179,26.294,151.26,26.294z"/>
			<path fill="#E6E7E7" d="M151.308,26.289c0.484-0.094,2.841-0.201,3.647-0.201l45.167,1.733c4.385,0.165,8.415,1.572,11.538,4.184
				l55.423,46.33c3.856,3.223,6.343,8.035,6.454,13.43c0.006,0.128,0.028,0.692,0.028,0.822l0.846,34.436
				c0.001,0.891-0.109,4.997-0.563,6.248c0,0,0.01-0.118,0.023-0.173c0.111-3.169-0.515-8.571-5.917-14.179
				c-0.272-0.313-0.882-0.891-1.78-1.693c-6.085-5.071-95.198-79.332-101.371-84.476c-0.01-0.008-0.054-0.045-0.064-0.053
				c-0.863-0.717-1.515-1.25-1.891-1.535c-0.013-0.009-0.057-0.045-0.067-0.054C159.576,28.578,155.238,26.289,151.308,26.289z"/>
			<path fill="#E6E6E6" d="M151.356,26.284c0.473-0.092,2.859-0.196,3.646-0.196l45.142,1.69c4.385,0.161,8.415,1.572,11.538,4.183
				l55.424,46.33c3.854,3.221,6.339,8.029,6.453,13.419c0.006,0.132,0.028,0.688,0.028,0.822l0.824,34.412
				c0.001,0.869-0.106,5.025-0.549,6.245c0,0,0.009-0.12,0.022-0.173c0.108-3.227-0.565-8.616-5.93-14.165
				c-0.267-0.305-0.876-0.882-1.783-1.689c-6.25-5.208-94.981-79.153-101.321-84.436c-0.011-0.009-0.054-0.045-0.065-0.053
				c-0.871-0.725-1.523-1.257-1.889-1.536c-0.012-0.009-0.057-0.044-0.068-0.054C159.626,28.554,155.296,26.284,151.356,26.284z"/>
			<path fill="#E5E5E6" d="M151.404,26.279c0.46-0.09,2.877-0.191,3.645-0.191l45.116,1.647c4.385,0.156,8.415,1.572,11.539,4.184
				l55.422,46.33c3.853,3.219,6.337,8.022,6.454,13.409c0.006,0.135,0.027,0.684,0.027,0.821l0.804,34.389
				c0.001,0.846-0.104,5.054-0.534,6.242c0,0,0.008-0.121,0.022-0.173c0.104-3.285-0.617-8.662-5.945-14.151
				c-0.26-0.297-0.871-0.874-1.784-1.687c-6.414-5.345-94.768-78.973-101.272-84.395c-0.012-0.008-0.054-0.045-0.065-0.053
				c-0.88-0.731-1.531-1.264-1.889-1.536c-0.012-0.008-0.056-0.044-0.067-0.053C159.677,28.53,155.355,26.279,151.404,26.279z"/>
			<path fill="#E4E5E5" d="M151.453,26.273c0.449-0.087,2.895-0.186,3.642-0.186l45.092,1.604c4.385,0.152,8.414,1.572,11.538,4.184
				l55.424,46.331c3.849,3.216,6.333,8.016,6.452,13.398c0.007,0.139,0.028,0.68,0.028,0.821l0.782,34.366
				c0.001,0.824-0.102,5.083-0.52,6.239c0,0,0.008-0.123,0.021-0.174c0.101-3.343-0.668-8.707-5.959-14.139
				c-0.252-0.289-0.864-0.865-1.785-1.682c-6.579-5.483-94.552-78.794-101.224-84.354c-0.012-0.009-0.055-0.044-0.065-0.053
				c-0.889-0.739-1.541-1.271-1.888-1.535c-0.011-0.009-0.057-0.046-0.067-0.054C159.727,28.506,155.414,26.273,151.453,26.273z"/>
			<path fill="#E3E4E4" d="M151.502,26.269c0.436-0.085,2.913-0.181,3.64-0.181l45.066,1.56c4.385,0.148,8.414,1.572,11.538,4.184
				l55.424,46.33c3.846,3.215,6.33,8.01,6.452,13.388c0.007,0.143,0.027,0.676,0.027,0.821l0.762,34.343
				c0.001,0.802-0.099,5.111-0.507,6.237c0,0,0.008-0.125,0.021-0.174c0.097-3.401-0.719-8.752-5.973-14.125
				c-0.246-0.281-0.859-0.856-1.788-1.678c-6.742-5.62-94.336-78.614-101.176-84.314c-0.011-0.009-0.053-0.044-0.064-0.053
				c-0.896-0.746-1.548-1.279-1.886-1.536c-0.01-0.008-0.057-0.046-0.068-0.054C159.776,28.483,155.473,26.269,151.502,26.269z"/>
			<path fill="#E3E3E3" d="M151.55,26.264c0.424-0.083,2.933-0.176,3.639-0.176l45.042,1.517c4.385,0.144,8.414,1.572,11.537,4.184
				l55.423,46.33c3.846,3.213,6.328,8.004,6.453,13.377c0.008,0.146,0.028,0.672,0.028,0.82l0.739,34.32
				c0.001,0.779-0.097,5.14-0.491,6.234c0,0,0.007-0.126,0.02-0.175c0.091-3.458-0.771-8.798-5.987-14.112
				c-0.238-0.273-0.854-0.847-1.79-1.674c-6.907-5.756-94.12-78.434-101.126-84.272c-0.012-0.01-0.053-0.044-0.064-0.053
				c-0.905-0.753-1.556-1.286-1.885-1.536c-0.011-0.007-0.058-0.045-0.067-0.054C159.826,28.459,155.532,26.264,151.55,26.264z"/>
			<path fill="#E2E2E3" d="M151.599,26.258c0.411-0.08,2.949-0.17,3.636-0.17l45.018,1.474c4.385,0.14,8.414,1.572,11.537,4.183
				l55.424,46.33c3.842,3.211,6.324,7.998,6.453,13.367c0.007,0.149,0.026,0.669,0.026,0.82l0.719,34.296
				c0.001,0.757-0.093,5.168-0.479,6.231c0,0,0.008-0.127,0.021-0.175c0.087-3.517-0.821-8.843-6.002-14.099
				c-0.231-0.266-0.847-0.839-1.79-1.67c-7.073-5.894-93.905-78.255-101.078-84.232c-0.013-0.01-0.054-0.043-0.064-0.053
				c-0.914-0.76-1.565-1.293-1.884-1.536c-0.011-0.008-0.058-0.046-0.068-0.054C159.877,28.436,155.591,26.258,151.599,26.258z"/>
			<path fill="#E1E2E2" d="M151.646,26.254c0.399-0.078,2.968-0.166,3.634-0.166l44.993,1.43c4.385,0.136,8.414,1.572,11.538,4.184
				l55.423,46.33c3.839,3.208,6.321,7.991,6.452,13.356c0.008,0.153,0.027,0.665,0.027,0.82l0.697,34.273
				c0.001,0.735-0.09,5.196-0.464,6.229c0,0,0.007-0.13,0.019-0.176c0.083-3.575-0.872-8.888-6.016-14.085
				c-0.225-0.257-0.841-0.83-1.791-1.666c-7.237-6.031-93.69-78.076-101.031-84.192c-0.011-0.01-0.052-0.043-0.063-0.053
				c-0.923-0.767-1.572-1.3-1.884-1.535c-0.01-0.008-0.058-0.047-0.067-0.054C159.927,28.412,155.65,26.254,151.646,26.254z"/>
			<path fill="#E1E1E1" d="M151.694,26.249c0.388-0.076,2.987-0.161,3.633-0.161l44.969,1.387c4.385,0.131,8.414,1.572,11.538,4.183
				l55.422,46.33c3.838,3.207,6.317,7.985,6.452,13.346c0.008,0.157,0.027,0.661,0.027,0.819l0.676,34.251
				c0.001,0.712-0.087,5.225-0.45,6.225c0,0,0.007-0.132,0.019-0.176c0.08-3.632-0.925-8.934-6.03-14.072
				c-0.218-0.25-0.835-0.822-1.793-1.663c-7.401-6.168-93.474-77.896-100.981-84.151c-0.012-0.01-0.052-0.043-0.063-0.053
				c-0.931-0.774-1.581-1.307-1.881-1.535c-0.01-0.007-0.059-0.047-0.068-0.054C159.978,28.389,155.708,26.249,151.694,26.249z"/>
			<path fill="#E0E0E1" d="M151.743,26.244c0.375-0.074,3.004-0.156,3.63-0.156l44.943,1.344c4.387,0.127,8.414,1.572,11.538,4.184
				l55.423,46.33c3.835,3.205,6.314,7.979,6.452,13.335c0.008,0.16,0.026,0.657,0.026,0.819l0.655,34.228
				c0.001,0.69-0.085,5.253-0.436,6.222c0,0,0.007-0.133,0.018-0.176c0.075-3.69-0.976-8.979-6.044-14.059
				c-0.211-0.242-0.829-0.813-1.796-1.659c-7.565-6.305-93.258-77.716-100.932-84.11c-0.014-0.01-0.053-0.043-0.064-0.053
				c-0.938-0.78-1.588-1.314-1.88-1.535c-0.008-0.007-0.059-0.047-0.067-0.054C160.027,28.364,155.767,26.244,151.743,26.244z"/>
			<path fill="#DFE0E0" d="M151.791,26.238c0.363-0.071,3.022-0.15,3.629-0.15l44.918,1.3c4.387,0.124,8.415,1.572,11.539,4.184
				l55.422,46.331c3.832,3.202,6.312,7.972,6.453,13.325c0.008,0.163,0.025,0.653,0.025,0.818l0.634,34.205
				c0.001,0.668-0.082,5.282-0.422,6.219c0,0,0.007-0.135,0.018-0.176c0.07-3.749-1.027-9.024-6.058-14.046
				c-0.205-0.234-0.824-0.804-1.798-1.655c-7.729-6.442-93.043-77.537-100.884-84.07c-0.013-0.011-0.052-0.042-0.063-0.053
				c-0.945-0.788-1.597-1.321-1.879-1.536c-0.01-0.007-0.058-0.047-0.067-0.054C160.076,28.341,155.825,26.238,151.791,26.238z"/>
			<path fill="#DEDFDF" d="M151.839,26.234c0.352-0.069,3.042-0.146,3.627-0.146l44.895,1.257c4.386,0.119,8.415,1.572,11.539,4.183
				l55.422,46.33c3.829,3.2,6.308,7.966,6.451,13.314c0.008,0.167,0.026,0.649,0.026,0.818l0.612,34.182
				c0.001,0.646-0.08,5.31-0.408,6.217c0,0,0.007-0.137,0.018-0.177c0.065-3.806-1.079-9.07-6.073-14.033
				c-0.197-0.227-0.818-0.795-1.798-1.651c-7.895-6.58-92.828-77.357-100.835-84.03c-0.013-0.011-0.052-0.042-0.064-0.053
				c-0.954-0.794-1.604-1.328-1.877-1.535c-0.009-0.007-0.06-0.048-0.067-0.054C160.127,28.317,155.885,26.234,151.839,26.234z"/>
			<path fill="#DEDEDE" d="M151.887,26.229c0.34-0.066,3.061-0.141,3.625-0.141l44.869,1.214c4.388,0.115,8.415,1.572,11.539,4.184
				l55.423,46.33c3.827,3.198,6.305,7.959,6.452,13.304c0.007,0.17,0.025,0.646,0.025,0.818l0.591,34.158
				c0.001,0.624-0.076,5.339-0.394,6.214c0,0,0.006-0.139,0.016-0.177c0.063-3.864-1.129-9.115-6.086-14.02
				c-0.191-0.219-0.813-0.786-1.8-1.647c-8.061-6.716-92.612-77.177-100.786-83.989c-0.014-0.011-0.052-0.042-0.064-0.052
				c-0.962-0.801-1.613-1.335-1.876-1.535c-0.008-0.006-0.059-0.048-0.068-0.054C160.177,28.293,155.942,26.229,151.887,26.229z"/>
			<path fill="#DDDDDE" d="M151.936,26.224c0.328-0.064,3.079-0.136,3.623-0.136l44.845,1.17c4.388,0.111,8.415,1.572,11.539,4.183
				l55.422,46.331c3.824,3.195,6.302,7.953,6.451,13.293c0.008,0.174,0.026,0.642,0.026,0.817l0.569,34.136
				c0.001,0.601-0.074,5.366-0.38,6.21c0,0,0.006-0.14,0.016-0.177c0.058-3.922-1.18-9.16-6.1-14.006
				c-0.185-0.211-0.807-0.778-1.803-1.644c-8.224-6.853-92.396-76.997-100.737-83.948c-0.015-0.011-0.051-0.042-0.063-0.053
				c-0.972-0.808-1.622-1.342-1.875-1.535c-0.008-0.006-0.06-0.048-0.067-0.054C160.228,28.27,156.002,26.224,151.936,26.224z"/>
			<path fill="#DCDDDD" d="M151.984,26.218c0.314-0.062,3.096-0.13,3.621-0.13l44.819,1.126c4.386,0.108,8.415,1.572,11.539,4.184
				l55.423,46.331c3.82,3.193,6.298,7.947,6.451,13.283c0.007,0.177,0.023,0.638,0.023,0.817l0.55,34.112
				c0.001,0.578-0.07,5.395-0.365,6.208c0,0,0.006-0.142,0.016-0.178c0.054-3.979-1.232-9.205-6.116-13.993
				c-0.177-0.203-0.8-0.769-1.803-1.639c-8.389-6.991-92.181-76.818-100.689-83.908c-0.014-0.011-0.05-0.041-0.064-0.052
				c-0.978-0.815-1.628-1.35-1.873-1.535c-0.008-0.006-0.06-0.048-0.066-0.054C160.277,28.246,156.061,26.218,151.984,26.218z"/>
			<path fill="#DBDCDC" d="M152.032,26.213c0.303-0.059,3.115-0.125,3.62-0.125l44.794,1.083c4.387,0.103,8.415,1.572,11.539,4.184
				l55.422,46.33c3.819,3.191,6.296,7.941,6.451,13.272c0.009,0.181,0.023,0.634,0.023,0.817l0.529,34.089
				c0.001,0.557-0.067,5.423-0.352,6.206c0,0,0.005-0.144,0.015-0.178c0.049-4.038-1.282-9.251-6.129-13.98
				c-0.171-0.195-0.795-0.76-1.805-1.635c-8.553-7.127-91.966-76.638-100.641-83.867c-0.014-0.012-0.05-0.042-0.064-0.053
				c-0.987-0.821-1.638-1.356-1.872-1.535c-0.008-0.006-0.06-0.049-0.067-0.055C160.327,28.223,156.119,26.213,152.032,26.213z"/>
			<path fill="#DBDBDC" d="M152.081,26.208c0.29-0.057,3.133-0.121,3.617-0.121l44.771,1.041c4.387,0.098,8.414,1.572,11.538,4.184
				l55.423,46.33c3.816,3.189,6.291,7.935,6.451,13.262c0.007,0.184,0.023,0.63,0.023,0.816l0.507,34.066
				c0.001,0.534-0.065,5.452-0.337,6.203c0,0,0.005-0.146,0.013-0.179c0.046-4.096-1.334-9.296-6.143-13.966
				c-0.163-0.188-0.789-0.751-1.806-1.632c-8.718-7.264-91.75-76.459-100.593-83.827c-0.014-0.012-0.049-0.041-0.063-0.052
				c-0.995-0.829-1.646-1.364-1.87-1.535c-0.008-0.006-0.061-0.049-0.067-0.054C160.377,28.199,156.178,26.208,152.081,26.208z"/>
			<path fill="#DADADB" d="M152.129,26.204c0.279-0.055,3.151-0.116,3.616-0.116l44.745,0.997c4.387,0.095,8.414,1.572,11.538,4.184
				l55.424,46.331c3.813,3.187,6.288,7.929,6.449,13.251c0.009,0.187,0.023,0.626,0.023,0.815l0.486,34.043
				c0.001,0.512-0.063,5.48-0.323,6.199c0,0,0.005-0.147,0.014-0.179c0.041-4.154-1.386-9.341-6.158-13.953
				c-0.156-0.18-0.783-0.743-1.808-1.628c-8.882-7.401-91.535-76.279-100.544-83.786c-0.015-0.012-0.048-0.041-0.063-0.053
				c-1.005-0.835-1.653-1.371-1.87-1.535c-0.006-0.005-0.061-0.048-0.067-0.054C160.428,28.175,156.237,26.204,152.129,26.204z"/>
			<path fill="#D9DADA" d="M152.178,26.198c0.267-0.052,3.169-0.11,3.613-0.11l44.721,0.954c4.387,0.091,8.414,1.572,11.538,4.183
				l55.423,46.331c3.812,3.185,6.285,7.922,6.449,13.241c0.009,0.191,0.024,0.622,0.024,0.815l0.465,34.02
				c0.001,0.49-0.06,5.509-0.309,6.197c0,0,0.003-0.148,0.013-0.179c0.036-4.211-1.438-9.386-6.172-13.94
				c-0.15-0.171-0.777-0.734-1.811-1.624c-9.046-7.539-91.319-76.1-100.494-83.746c-0.015-0.012-0.049-0.041-0.063-0.052
				c-1.012-0.842-1.661-1.378-1.868-1.535c-0.006-0.005-0.062-0.049-0.067-0.054C160.477,28.151,156.297,26.198,152.178,26.198z"/>
			<path fill="#D8D9D9" d="M152.227,26.193c0.253-0.049,3.187-0.105,3.61-0.105l44.696,0.91c4.388,0.086,8.414,1.572,11.538,4.184
				l55.423,46.33c3.81,3.183,6.282,7.917,6.449,13.23c0.01,0.194,0.024,0.618,0.024,0.815l0.443,33.997
				c0.001,0.468-0.058,5.538-0.295,6.194c0,0,0.005-0.15,0.012-0.179c0.032-4.27-1.488-9.432-6.186-13.927
				c-0.143-0.165-0.772-0.725-1.812-1.62c-9.21-7.675-91.104-75.92-100.445-83.705c-0.016-0.012-0.049-0.04-0.063-0.052
				c-1.021-0.849-1.67-1.385-1.866-1.535c-0.008-0.005-0.062-0.049-0.068-0.055C160.527,28.128,156.354,26.193,152.227,26.193z"/>
			<path fill="#D8D8D9" d="M152.273,26.188c0.243-0.047,3.206-0.101,3.61-0.101l44.671,0.867c4.389,0.082,8.414,1.572,11.538,4.183
				l55.423,46.331c3.807,3.181,6.279,7.91,6.45,13.22c0.01,0.198,0.022,0.614,0.022,0.814l0.423,33.974
				c0.001,0.445-0.054,5.565-0.281,6.19c0,0,0.004-0.152,0.012-0.179c0.028-4.327-1.539-9.477-6.2-13.913
				c-0.136-0.157-0.766-0.717-1.813-1.617c-9.376-7.813-90.889-75.74-100.397-83.665c-0.015-0.012-0.048-0.04-0.063-0.052
				c-1.028-0.856-1.679-1.392-1.867-1.535c-0.006-0.004-0.062-0.05-0.066-0.054C160.577,28.104,156.414,26.188,152.273,26.188z"/>
			<path fill="#D7D7D8" d="M152.322,26.184c0.229-0.045,3.225-0.096,3.607-0.096l44.647,0.824c4.388,0.078,8.414,1.572,11.538,4.183
				l55.422,46.331c3.805,3.179,6.276,7.904,6.449,13.209c0.01,0.202,0.023,0.611,0.023,0.814l0.402,33.951
				c0,0.423-0.053,5.594-0.268,6.188c0,0,0.004-0.153,0.01-0.18c0.025-4.386-1.59-9.522-6.214-13.9
				c-0.129-0.148-0.759-0.708-1.815-1.612c-9.537-7.95-90.671-75.561-100.347-83.624c-0.016-0.013-0.048-0.04-0.063-0.053
				c-1.037-0.863-1.687-1.399-1.864-1.535c-0.006-0.004-0.062-0.05-0.067-0.054C160.628,28.081,156.472,26.184,152.322,26.184z"/>
			<path fill="#D6D7D7" d="M152.37,26.178c0.218-0.042,3.243-0.09,3.605-0.09l44.623,0.78c4.388,0.074,8.414,1.572,11.538,4.184
				l55.423,46.33c3.802,3.177,6.272,7.898,6.449,13.199c0.01,0.205,0.022,0.607,0.022,0.814l0.381,33.928
				c0,0.4-0.049,5.623-0.253,6.185c0,0,0.003-0.155,0.01-0.18c0.02-4.443-1.643-9.568-6.229-13.887
				c-0.122-0.141-0.753-0.699-1.816-1.608c-9.703-8.086-90.456-75.381-100.298-83.583c-0.017-0.014-0.049-0.039-0.063-0.052
				c-1.045-0.87-1.695-1.406-1.864-1.535c-0.004-0.004-0.062-0.05-0.066-0.054C160.678,28.057,156.531,26.178,152.37,26.178z"/>
			<path fill="#D5D6D6" d="M152.418,26.174c0.207-0.041,3.262-0.086,3.604-0.086l44.597,0.737c4.39,0.07,8.415,1.572,11.539,4.184
				l55.423,46.33c3.8,3.175,6.27,7.891,6.448,13.188c0.01,0.208,0.022,0.603,0.022,0.814l0.36,33.905
				c0,0.378-0.047,5.651-0.239,6.182c0,0,0.004-0.157,0.01-0.181c0.016-4.501-1.693-9.613-6.243-13.874
				c-0.115-0.133-0.749-0.69-1.818-1.604c-9.867-8.224-90.24-75.202-100.25-83.543c-0.017-0.014-0.047-0.039-0.063-0.052
				c-1.055-0.877-1.703-1.413-1.863-1.534c-0.006-0.004-0.062-0.051-0.067-0.055C160.728,28.033,156.59,26.174,152.418,26.174z"/>
			<path fill="#D5D5D6" d="M152.467,26.168c0.193-0.038,3.28-0.081,3.603-0.081l44.572,0.693c4.389,0.066,8.415,1.572,11.539,4.184
				l55.422,46.33c3.797,3.173,6.267,7.885,6.449,13.178c0.01,0.212,0.022,0.599,0.022,0.813l0.338,33.882
				c0,0.356-0.044,5.68-0.226,6.179c0,0,0.003-0.158,0.009-0.181c0.011-4.559-1.744-9.658-6.256-13.861
				c-0.108-0.125-0.743-0.681-1.82-1.601c-10.033-8.36-90.026-75.021-100.202-83.502c-0.017-0.013-0.046-0.039-0.063-0.052
				c-1.061-0.884-1.711-1.42-1.859-1.535c-0.006-0.004-0.063-0.051-0.068-0.055C160.777,28.01,156.648,26.168,152.467,26.168z"/>
			<path fill="#D4D4D5" d="M152.515,26.164c0.183-0.036,3.299-0.076,3.602-0.076l44.546,0.65c4.39,0.062,8.415,1.572,11.539,4.184
				l55.423,46.33c3.795,3.171,6.264,7.878,6.449,13.167c0.01,0.215,0.021,0.595,0.021,0.813l0.317,33.858
				c0,0.334-0.042,5.708-0.211,6.177c0,0,0.002-0.161,0.007-0.182c0.008-4.617-1.795-9.703-6.27-13.847
				c-0.103-0.118-0.736-0.673-1.822-1.597c-10.196-8.498-89.81-74.843-100.152-83.461c-0.017-0.015-0.047-0.039-0.063-0.053
				c-1.07-0.891-1.719-1.428-1.86-1.535c-0.003-0.003-0.062-0.051-0.066-0.054C160.827,27.986,156.706,26.164,152.515,26.164z"/>
			<path fill="#D3D4D4" d="M152.563,26.158c0.169-0.033,3.315-0.07,3.599-0.07l44.522,0.607c4.389,0.058,8.415,1.572,11.539,4.184
				l55.422,46.33c3.793,3.168,6.261,7.873,6.449,13.157c0.009,0.219,0.021,0.591,0.021,0.813l0.297,33.836
				c0,0.311-0.038,5.735-0.196,6.173c0,0,0.002-0.163,0.008-0.182c0.002-4.675-1.849-9.75-6.286-13.834
				c-0.095-0.109-0.73-0.664-1.823-1.593c-10.361-8.635-89.595-74.663-100.104-83.421c-0.018-0.014-0.046-0.038-0.063-0.052
				c-1.078-0.898-1.728-1.435-1.858-1.535c-0.004-0.002-0.063-0.051-0.067-0.054C160.877,27.962,156.766,26.158,152.563,26.158z"/>
			<path fill="#D2D3D3" d="M152.611,26.154c0.158-0.031,3.335-0.066,3.598-0.066l44.498,0.563c4.389,0.054,8.415,1.572,11.539,4.184
				l55.422,46.33c3.789,3.167,6.256,7.866,6.447,13.146c0.011,0.222,0.022,0.587,0.022,0.813l0.274,33.813
				c0,0.29-0.036,5.764-0.184,6.171c0,0,0.002-0.164,0.008-0.182c-0.001-4.732-1.898-9.794-6.299-13.821
				c-0.089-0.102-0.726-0.655-1.825-1.589c-10.526-8.771-89.379-74.483-100.057-83.38c-0.017-0.014-0.044-0.038-0.063-0.052
				c-1.087-0.904-1.734-1.442-1.856-1.534c-0.004-0.003-0.063-0.052-0.067-0.055C160.928,27.939,156.824,26.154,152.611,26.154z"/>
			<path fill="#D2D2D3" d="M152.66,26.148c0.146-0.028,3.353-0.06,3.595-0.06l44.474,0.521c4.388,0.049,8.415,1.572,11.539,4.183
				l55.423,46.33c3.786,3.165,6.252,7.86,6.447,13.136c0.009,0.226,0.021,0.583,0.021,0.812l0.254,33.79
				c0,0.267-0.033,5.792-0.168,6.168c0,0,0.001-0.166,0.005-0.182c-0.005-4.791-1.949-9.84-6.313-13.808
				c-0.082-0.094-0.72-0.646-1.827-1.585c-10.689-8.909-89.163-74.303-100.007-83.34c-0.018-0.014-0.045-0.038-0.063-0.051
				c-1.094-0.912-1.742-1.45-1.855-1.535c-0.004-0.003-0.063-0.052-0.066-0.055C160.978,27.915,156.883,26.148,152.66,26.148z"/>
			<path fill="#D1D1D2" d="M152.709,26.144c0.133-0.026,3.37-0.056,3.592-0.056l44.449,0.477c4.389,0.045,8.414,1.572,11.538,4.184
				l55.423,46.33c3.785,3.163,6.25,7.854,6.448,13.125c0.01,0.229,0.021,0.58,0.021,0.812l0.232,33.767
				c0,0.245-0.03,5.821-0.155,6.165c0,0,0.002-0.168,0.006-0.183c-0.01-4.849-2.001-9.885-6.327-13.794
				c-0.074-0.086-0.713-0.638-1.828-1.582c-10.854-9.046-88.948-74.125-99.958-83.299c-0.018-0.015-0.045-0.038-0.063-0.052
				c-1.103-0.918-1.751-1.457-1.854-1.535c-0.004-0.003-0.064-0.053-0.067-0.055C161.028,27.891,156.942,26.144,152.709,26.144z"/>
			<path fill="#D0D1D1" d="M152.757,26.138c0.121-0.023,3.389-0.05,3.591-0.05l44.424,0.434c4.39,0.041,8.415,1.572,11.538,4.184
				l55.424,46.33c3.781,3.16,6.246,7.848,6.447,13.115c0.01,0.233,0.021,0.576,0.021,0.812l0.211,33.743
				c0,0.223-0.027,5.85-0.141,6.163c0,0,0.001-0.169,0.004-0.183c-0.013-4.906-2.051-9.93-6.34-13.781
				c-0.068-0.078-0.707-0.629-1.831-1.577c-11.019-9.183-88.731-73.944-99.909-83.259c-0.019-0.015-0.044-0.037-0.063-0.052
				c-1.11-0.925-1.759-1.463-1.854-1.535c-0.002-0.002-0.063-0.052-0.067-0.054C161.077,27.868,157.001,26.138,152.757,26.138z"/>
			<path fill="#CFD0D0" d="M152.806,26.133c0.107-0.021,3.407-0.045,3.589-0.045l44.398,0.391c4.389,0.037,8.415,1.572,11.538,4.183
				l55.424,46.33c3.778,3.158,6.243,7.841,6.446,13.105c0.011,0.236,0.021,0.572,0.021,0.811l0.19,33.72
				c0,0.2-0.025,5.878-0.127,6.16c0,0,0.001-0.171,0.005-0.184c-0.019-4.964-2.103-9.975-6.355-13.768
				c-0.061-0.07-0.702-0.62-1.832-1.574c-11.185-9.32-88.517-73.765-99.86-83.218c-0.019-0.015-0.045-0.037-0.063-0.052
				c-1.119-0.932-1.768-1.47-1.852-1.534c-0.003-0.002-0.064-0.053-0.067-0.055C161.127,27.844,157.061,26.133,152.806,26.133z"/>
			<path fill="#CFCFD0" d="M152.853,26.128c0.099-0.019,3.426-0.041,3.587-0.041l44.376,0.347c4.389,0.033,8.414,1.572,11.538,4.183
				l55.422,46.33c3.777,3.156,6.241,7.835,6.448,13.094c0.01,0.24,0.02,0.568,0.02,0.81l0.169,33.698
				c0,0.178-0.022,5.906-0.112,6.157c0,0,0-0.173,0.004-0.184c-0.021-5.022-2.155-10.021-6.369-13.754
				c-0.056-0.063-0.697-0.612-1.833-1.57c-11.349-9.457-88.302-73.585-99.813-83.178c-0.019-0.016-0.044-0.037-0.063-0.051
				c-1.127-0.939-1.775-1.478-1.851-1.535c-0.003-0.001-0.064-0.053-0.066-0.055C161.177,27.82,157.118,26.128,152.853,26.128z"/>
			<path fill="#CECECF" d="M152.901,26.124c0.085-0.017,3.443-0.036,3.585-0.036l44.351,0.303c4.39,0.029,8.414,1.572,11.538,4.184
				l55.423,46.331c3.774,3.154,6.237,7.829,6.446,13.083c0.011,0.244,0.02,0.564,0.02,0.811l0.148,33.674
				c0,0.156-0.02,5.935-0.099,6.154c0,0,0.001-0.174,0.003-0.184c-0.025-5.08-2.206-10.066-6.383-13.742
				c-0.048-0.055-0.69-0.603-1.835-1.565c-11.514-9.594-88.087-73.406-99.764-83.137c-0.02-0.016-0.044-0.037-0.063-0.052
				c-1.136-0.946-1.785-1.485-1.851-1.535c-0.001-0.001-0.064-0.053-0.065-0.055C161.228,27.797,157.178,26.124,152.901,26.124z"/>
			<path fill="#CDCECE" d="M152.95,26.118c0.071-0.014,3.462-0.03,3.583-0.03l44.325,0.26c4.39,0.025,8.414,1.572,11.538,4.184
				l55.423,46.33c3.771,3.152,6.234,7.823,6.446,13.073c0.012,0.247,0.02,0.56,0.02,0.81l0.127,33.651
				c0,0.133-0.017,5.963-0.085,6.151c0,0,0.001-0.176,0.002-0.185c-0.029-5.138-2.256-10.111-6.396-13.728
				c-0.04-0.047-0.685-0.594-1.837-1.562c-11.677-9.731-87.87-73.226-99.715-83.096c-0.02-0.016-0.044-0.036-0.063-0.052
				c-1.144-0.953-1.792-1.492-1.848-1.535c-0.002-0.001-0.065-0.053-0.067-0.054C161.277,27.773,157.236,26.118,152.95,26.118z"/>
			<path fill="#CCCDCD" d="M152.997,26.113c0.062-0.012,3.482-0.025,3.583-0.025l44.301,0.217c4.389,0.021,8.414,1.572,11.537,4.184
				l55.423,46.33c3.769,3.15,6.231,7.816,6.446,13.063c0.012,0.25,0.02,0.557,0.02,0.81l0.105,33.628
				c0,0.111-0.014,5.991-0.07,6.148c0,0,0.001-0.178,0.003-0.185c-0.036-5.196-2.309-10.156-6.412-13.714
				c-0.035-0.04-0.681-0.586-1.839-1.559c-11.842-9.868-87.655-73.046-99.666-83.056c-0.02-0.016-0.044-0.036-0.063-0.052
				c-1.152-0.959-1.8-1.499-1.847-1.534c-0.002-0.001-0.066-0.054-0.067-0.055C161.328,27.749,157.295,26.113,152.997,26.113z"/>
			<path fill="#CCCCCD" d="M153.046,26.108c0.048-0.01,3.5-0.021,3.58-0.021l44.274,0.174c4.392,0.016,8.416,1.572,11.539,4.183
				l55.424,46.33c3.767,3.148,6.228,7.81,6.445,13.052c0.012,0.254,0.019,0.553,0.019,0.81l0.085,33.605
				c0,0.089-0.011,6.02-0.057,6.146c0,0,0-0.18,0.002-0.185c-0.039-5.254-2.36-10.202-6.425-13.702
				c-0.028-0.031-0.675-0.577-1.841-1.554c-12.006-10.005-87.44-72.867-99.618-83.016c-0.02-0.016-0.043-0.035-0.062-0.051
				c-1.161-0.967-1.81-1.506-1.847-1.535c-0.001,0-0.064-0.054-0.066-0.055C161.378,27.726,157.354,26.108,153.046,26.108z"/>
			<path fill="#CBCBCC" d="M153.094,26.104c0.037-0.007,3.519-0.016,3.579-0.016l44.25,0.13c4.392,0.013,8.415,1.572,11.539,4.184
				l55.423,46.331c3.764,3.146,6.224,7.804,6.444,13.042c0.013,0.257,0.02,0.548,0.02,0.809l0.063,33.582
				c0,0.067-0.008,6.049-0.042,6.142c0,0,0-0.181,0-0.185c-0.043-5.312-2.41-10.247-6.439-13.688
				c-0.021-0.023-0.667-0.568-1.842-1.55c-12.171-10.142-87.224-72.688-99.569-82.975c-0.021-0.017-0.043-0.035-0.062-0.051
				c-1.169-0.974-1.815-1.513-1.844-1.535c-0.002-0.001-0.067-0.054-0.067-0.055C161.429,27.702,157.412,26.104,153.094,26.104z"/>
			<path fill="#CACBCB" d="M153.143,26.098c0.024-0.004,3.536-0.01,3.577-0.01l44.226,0.087c4.39,0.008,8.415,1.572,11.539,4.183
				l55.422,46.33c3.761,3.144,6.221,7.798,6.445,13.031c0.012,0.26,0.019,0.545,0.019,0.808l0.042,33.559
				c0,0.044-0.006,6.077-0.028,6.139c0,0,0-0.183,0-0.185c-0.047-5.37-2.462-10.293-6.453-13.675
				c-0.014-0.016-0.662-0.56-1.845-1.547c-12.334-10.279-87.009-72.508-99.52-82.934c-0.021-0.017-0.043-0.036-0.063-0.052
				c-1.176-0.98-1.823-1.52-1.843-1.534c0-0.001-0.065-0.054-0.066-0.055C161.479,27.678,157.472,26.098,153.143,26.098z"/>
			<path fill="#C9CACA" d="M153.191,26.093c0.012-0.002,3.554-0.005,3.573-0.005l44.201,0.044c4.391,0.004,8.415,1.572,11.539,4.183
				l55.423,46.33c3.76,3.142,6.217,7.792,6.445,13.021c0.012,0.264,0.018,0.541,0.018,0.808l0.021,33.536
				c0,0.022-0.003,6.105-0.014,6.137c0,0-0.001-0.184,0-0.186c-0.053-5.428-2.514-10.338-6.469-13.662
				c-0.007-0.008-0.656-0.551-1.846-1.542c-12.499-10.417-86.792-72.328-99.471-82.894c-0.021-0.017-0.042-0.035-0.063-0.052
				c-1.185-0.987-1.832-1.527-1.842-1.534c-0.001,0-0.066-0.055-0.066-0.055C161.528,27.655,157.529,26.093,153.191,26.093z"/>
			<path fill="#C8C9CA" d="M212.527,30.271l55.422,46.331c3.949,3.3,6.463,8.265,6.463,13.817v39.646l-0.001-0.186
				c-0.056-5.485-2.565-10.383-6.482-13.648c0-0.001-103.172-85.978-103.172-85.978l-0.066-0.055
				c-3.112-2.568-7.102-4.111-11.451-4.111h47.749C205.379,26.088,209.403,27.66,212.527,30.271z"/>
		</g>
		<g>
			<linearGradient id="SVGID_11_" gradientUnits="userSpaceOnUse" x1="182.3457" y1="28.417" x2="270.7189" y2="102.9447">
				<stop  offset="0" style="stop-color:#B91C24"/>
				<stop  offset="0.3715" style="stop-color:#E41F1F"/>
				<stop  offset="0.4182" style="stop-color:#EA7B51"/>
				<stop  offset="0.6303" style="stop-color:#EF9C79"/>
				<stop  offset="0.8476" style="stop-color:#F5E1D4"/>
				<stop  offset="0.8597" style="stop-color:#F2BBB0"/>
				<stop  offset="0.8751" style="stop-color:#EE928A"/>
				<stop  offset="0.8914" style="stop-color:#EB6E69"/>
				<stop  offset="0.9085" style="stop-color:#E8514E"/>
				<stop  offset="0.9267" style="stop-color:#E63B39"/>
				<stop  offset="0.9465" style="stop-color:#E52B2A"/>
				<stop  offset="0.9689" style="stop-color:#E42222"/>
				<stop  offset="1" style="stop-color:#E41F1F"/>
			</linearGradient>
			<path fill="url(#SVGID_11_)" d="M212.527,30.271l55.422,46.331c3.949,3.3,6.463,8.265,6.463,13.817v39.646l-0.001-0.186
				c-0.056-5.485-2.565-10.383-6.482-13.648c0-0.001-103.172-85.978-103.172-85.978l-0.066-0.055
				c-3.112-2.568-7.102-4.111-11.451-4.111h47.749C205.379,26.088,209.403,27.66,212.527,30.271z"/>
			<linearGradient id="SVGID_12_" gradientUnits="userSpaceOnUse" x1="197.6445" y1="25.5879" x2="274.7072" y2="91.0811">
				<stop  offset="0" style="stop-color:#CA9A13"/>
				<stop  offset="0.0998" style="stop-color:#E1C870"/>
				<stop  offset="0.1996" style="stop-color:#F9F7D0"/>
				<stop  offset="0.223" style="stop-color:#F9F4BF"/>
				<stop  offset="0.2696" style="stop-color:#F9EB92"/>
				<stop  offset="0.3342" style="stop-color:#FADD4A"/>
				<stop  offset="0.3958" style="stop-color:#FACF00"/>
				<stop  offset="0.4594" style="stop-color:#FADC41"/>
				<stop  offset="0.5257" style="stop-color:#F9E77E"/>
				<stop  offset="0.5821" style="stop-color:#F9F0AA"/>
				<stop  offset="0.6256" style="stop-color:#F9F5C6"/>
				<stop  offset="0.6511" style="stop-color:#F9F7D0"/>
				<stop  offset="0.8729" style="stop-color:#F7F7F8"/>
				<stop  offset="0.8801" style="stop-color:#F4EFD3"/>
				<stop  offset="0.8881" style="stop-color:#F1E8B3"/>
				<stop  offset="0.8957" style="stop-color:#F0E29B"/>
				<stop  offset="0.9028" style="stop-color:#EEDF8D"/>
				<stop  offset="0.9088" style="stop-color:#EEDE88"/>
				<stop  offset="1" style="stop-color:#EEDE88"/>
			</linearGradient>
			<path fill="url(#SVGID_12_)" d="M274.412,94.935V92.6c-0.854-4.665-3.332-8.762-6.833-11.681l-61.423-51.226
				c-1.893-1.578-4.086-2.81-6.478-3.605h-3.034c2.394,0.833,4.589,2.086,6.493,3.676l64.247,53.579
				C270.89,86.265,273.418,90.315,274.412,94.935z"/>
			<linearGradient id="SVGID_13_" gradientUnits="userSpaceOnUse" x1="179.9873" y1="39.8164" x2="261.6732" y2="108.7045">
				<stop  offset="0" style="stop-color:#CA9A13"/>
				<stop  offset="0.0998" style="stop-color:#E1C870"/>
				<stop  offset="0.1996" style="stop-color:#F9F7D0"/>
				<stop  offset="0.223" style="stop-color:#F9F4BF"/>
				<stop  offset="0.2696" style="stop-color:#F9EB92"/>
				<stop  offset="0.3342" style="stop-color:#FADD4A"/>
				<stop  offset="0.3958" style="stop-color:#FACF00"/>
				<stop  offset="0.4594" style="stop-color:#FADC41"/>
				<stop  offset="0.5257" style="stop-color:#F9E77E"/>
				<stop  offset="0.5821" style="stop-color:#F9F0AA"/>
				<stop  offset="0.6256" style="stop-color:#F9F5C6"/>
				<stop  offset="0.6511" style="stop-color:#F9F7D0"/>
				<stop  offset="0.871" style="stop-color:#F7F7F8"/>
				<stop  offset="0.8771" style="stop-color:#F4EFD3"/>
				<stop  offset="0.8837" style="stop-color:#F1E8B3"/>
				<stop  offset="0.89" style="stop-color:#F0E29B"/>
				<stop  offset="0.896" style="stop-color:#EEDF8D"/>
				<stop  offset="0.901" style="stop-color:#EEDE88"/>
				<stop  offset="1" style="stop-color:#EEDE88"/>
			</linearGradient>
			<path fill="url(#SVGID_13_)" d="M274.412,122.717v-5.206c-1.001-1.648-2.255-3.123-3.715-4.356
				c-0.001,0-100.668-85.004-100.668-85.004l-0.065-0.054c-0.924-0.773-1.936-1.438-3.005-2.008h-4.114
				c1.93,0.7,3.703,1.73,5.253,3.026l0.065,0.054c0,0,100.666,85.003,100.667,85.004
				C271.44,116.377,273.409,119.335,274.412,122.717z"/>
		</g>
		<linearGradient id="SVGID_14_" gradientUnits="userSpaceOnUse" x1="141.6724" y1="84.3862" x2="274.4111" y2="84.3862">
			<stop  offset="0" style="stop-color:#851D17"/>
			<stop  offset="0.1689" style="stop-color:#962118"/>
			<stop  offset="0.5037" style="stop-color:#C32C1B"/>
			<stop  offset="0.5969" style="stop-color:#D12F1C"/>
			<stop  offset="0.6298" style="stop-color:#CE2D1D"/>
			<stop  offset="0.841" style="stop-color:#BD2322"/>
			<stop  offset="1" style="stop-color:#B72024"/>
		</linearGradient>
		<path fill="url(#SVGID_14_)" d="M267.929,116.231c0-0.001-103.172-85.978-103.172-85.978l-0.066-0.055
			c-3.112-2.568-7.102-4.111-11.451-4.111c-4.403,0-8.438,1.582-11.567,4.208h2.014c2.597-1.64,6.453-2.873,9.553-2.873
			c3.785,0,7.642,1.324,10.557,3.73l0.061,0.048c1.028,0.858,103.07,85.92,103.338,86.145c3.688,3.075,5.834,7.756,5.881,12.544
			c0.023,3.783-1.541,7.701-3.826,10.602v2.192c3.22-3.275,5.193-7.749,5.162-12.805
			C274.355,124.395,271.846,119.497,267.929,116.231z"/>
	</g>
	<g>
		<linearGradient id="SVGID_15_" gradientUnits="userSpaceOnUse" x1="28.5103" y1="183.6943" x2="28.5103" y2="163.2012">
			<stop  offset="0" style="stop-color:#90221C"/>
			<stop  offset="0.193" style="stop-color:#A1251C"/>
			<stop  offset="0.5758" style="stop-color:#CE2E1C"/>
			<stop  offset="0.5969" style="stop-color:#D12F1C"/>
			<stop  offset="0.6298" style="stop-color:#CE2D1D"/>
			<stop  offset="0.841" style="stop-color:#BD2322"/>
			<stop  offset="1" style="stop-color:#B72024"/>
		</linearGradient>
		<path fill="url(#SVGID_15_)" d="M31.793,162.214c-3.932,2.352-6.566,6.65-6.566,11.565c0,4.914,2.634,9.213,6.566,11.564V162.214z
			"/>
		<g>
			<path fill="#FFFFFF" d="M141.672,183.91H38.696c-7.438,0-13.435-7.164-12.822-13.112L25.228,201.3
				c0,7.438,6.031,13.469,13.469,13.469h102.976l-15.429-15.429L141.672,183.91z"/>
			<path fill="#FDFDFD" d="M141.711,184l-103.015,0.038c-7.438,0-13.436-7.121-12.846-13.126l-0.623,30.516
				c0,7.438,6.031,13.469,13.469,13.469l103.008-0.032l-15.461-15.397L141.711,184z"/>
			<path fill="#FCFCFC" d="M141.75,184.09l-103.054,0.077c-7.438,0-13.438-7.077-12.871-13.14l-0.598,30.529
				c0,7.438,6.031,13.469,13.469,13.469l103.041-0.064l-15.493-15.364L141.75,184.09z"/>
			<path fill="#FAFAFA" d="M141.788,184.18l-103.092,0.115c-7.438,0-13.438-7.033-12.896-13.153l-0.573,30.543
				c0,7.438,6.031,13.469,13.469,13.469l103.073-0.097l-15.525-15.332L141.788,184.18z"/>
			<path fill="#F8F8F8" d="M141.827,184.269l-103.13,0.155c-7.438,0-13.44-6.99-12.921-13.167l-0.548,30.557
				c0,7.438,6.031,13.469,13.469,13.469l103.105-0.129l-15.558-15.301L141.827,184.269z"/>
			<path fill="#F6F6F6" d="M141.865,184.359l-103.168,0.192c-7.438,0-13.441-6.946-12.946-13.181l-0.523,30.57
				c0,7.438,6.031,13.469,13.469,13.469l103.137-0.161l-15.589-15.268L141.865,184.359z"/>
			<path fill="#F4F4F4" d="M141.903,184.449l-103.207,0.231c-7.438,0-13.442-6.903-12.971-13.194l-0.498,30.584
				c0,7.438,6.031,13.469,13.469,13.469l103.168-0.193l-15.621-15.236L141.903,184.449z"/>
			<path fill="#F2F2F2" d="M141.942,184.539l-103.246,0.27c-7.438,0-13.444-6.859-12.996-13.208l-0.473,30.598
				c0,7.438,6.031,13.468,13.469,13.468l103.201-0.224l-15.653-15.205L141.942,184.539z"/>
			<path fill="#F0F0F0" d="M141.98,184.628l-103.284,0.309c-7.438,0-13.445-6.815-13.021-13.222l-0.448,30.611
				c0,7.438,6.031,13.469,13.469,13.469l103.233-0.257l-15.686-15.172L141.98,184.628z"/>
			<path fill="#EDEEEE" d="M142.019,184.718l-103.323,0.348c-7.438,0-13.446-6.771-13.045-13.235l-0.423,30.625
				c0,7.438,6.031,13.469,13.469,13.469l103.265-0.289l-15.718-15.141L142.019,184.718z"/>
			<path fill="#EBECEC" d="M142.058,184.809l-103.361,0.385c-7.438,0-13.448-6.729-13.07-13.249l-0.398,30.64
				c0,7.438,6.031,13.468,13.469,13.468l103.297-0.321l-15.75-15.107L142.058,184.809z"/>
			<path fill="#E9EAEA" d="M142.096,184.898l-103.399,0.423c-7.438,0-13.449-6.684-13.095-13.263l-0.374,30.652
				c0,7.438,6.031,13.469,13.469,13.469l103.329-0.353l-15.782-15.076L142.096,184.898z"/>
			<path fill="#E7E7E8" d="M142.135,184.988l-103.438,0.463c-7.438,0-13.45-6.643-13.12-13.277l-0.349,30.666
				c0,7.439,6.031,13.469,13.469,13.469l103.361-0.386l-15.813-15.043L142.135,184.988z"/>
			<path fill="#E5E5E6" d="M142.173,185.077l-103.477,0.501c-7.438,0-13.451-6.597-13.145-13.29l-0.324,30.681
				c0,7.438,6.031,13.468,13.469,13.468l103.393-0.418l-15.846-15.011L142.173,185.077z"/>
			<path fill="#E3E3E3" d="M142.211,185.168l-103.515,0.539c-7.438,0-13.453-6.554-13.17-13.305l-0.299,30.694
				c0,7.438,6.031,13.469,13.469,13.469l103.425-0.45l-15.878-14.979L142.211,185.168z"/>
			<path fill="#E1E1E1" d="M142.25,185.257l-103.553,0.579c-7.438,0-13.454-6.511-13.195-13.318l-0.274,30.708
				c0,7.438,6.031,13.469,13.469,13.469l103.458-0.483l-15.91-14.946L142.25,185.257z"/>
			<path fill="#DEDFDF" d="M142.288,185.348l-103.592,0.616c-7.438,0-13.456-6.467-13.219-13.332l-0.25,30.721
				c0,7.439,6.031,13.47,13.469,13.47l103.489-0.514l-15.942-14.915L142.288,185.348z"/>
			<path fill="#DCDDDD" d="M142.327,185.437l-103.63,0.655c-7.438,0-13.457-6.423-13.245-13.345l-0.224,30.734
				c0,7.438,6.031,13.469,13.469,13.469l103.521-0.546l-15.974-14.884L142.327,185.437z"/>
			<path fill="#DADADB" d="M142.366,185.527l-103.669,0.693c-7.438,0-13.458-6.38-13.269-13.359l-0.2,30.749
				c0,7.439,6.031,13.468,13.469,13.468l103.553-0.577l-16.006-14.852L142.366,185.527z"/>
			<path fill="#D8D8D9" d="M142.404,185.616l-103.708,0.732c-7.438,0-13.459-6.336-13.294-13.372l-0.174,30.762
				c0,7.438,6.031,13.469,13.469,13.469l103.585-0.61l-16.038-14.818L142.404,185.616z"/>
			<path fill="#D5D6D6" d="M142.442,185.706l-103.746,0.771c-7.438,0-13.46-6.292-13.319-13.387l-0.15,30.775
				c0,7.439,6.031,13.47,13.469,13.47l103.618-0.643l-16.07-14.787L142.442,185.706z"/>
			<path fill="#D3D4D4" d="M142.481,185.797l-103.785,0.808c-7.438,0-13.461-6.248-13.344-13.399l-0.125,30.79
				c0,7.438,6.031,13.468,13.469,13.468l103.649-0.674l-16.102-14.755L142.481,185.797z"/>
			<path fill="#D2D2D3" d="M142.519,185.886l-103.823,0.849c-7.438,0-13.463-6.205-13.369-13.414l-0.1,30.803
				c0,7.439,6.031,13.469,13.469,13.469l103.682-0.707l-16.134-14.722L142.519,185.886z"/>
			<path fill="#CFD0D0" d="M142.558,185.977l-103.861,0.886c-7.438,0-13.464-6.162-13.394-13.428l-0.075,30.817
				c0,7.438,6.031,13.469,13.469,13.469l103.713-0.739l-16.166-14.69L142.558,185.977z"/>
			<path fill="#CDCECE" d="M142.596,186.065l-103.9,0.925c-7.438,0-13.466-6.117-13.419-13.441l-0.05,30.831
				c0,7.438,6.031,13.469,13.469,13.469l103.746-0.771l-16.198-14.657L142.596,186.065z"/>
			<path fill="#CBCBCC" d="M142.635,186.156l-103.938,0.963c-7.438,0-13.467-6.074-13.443-13.455l-0.025,30.845
				c0,7.438,6.031,13.469,13.469,13.469l103.778-0.803l-16.23-14.627L142.635,186.156z"/>
			<path fill="#C8C9CA" d="M142.673,186.245l-103.977,1.003c-7.438,0-13.469-6.031-13.469-13.469v30.857
				c0,7.439,6.031,13.469,13.469,13.469l103.81-0.835l-16.263-14.594L142.673,186.245z"/>
		</g>
		<linearGradient id="SVGID_16_" gradientUnits="userSpaceOnUse" x1="25.2275" y1="195.9424" x2="141.6724" y2="195.9424">
			<stop  offset="0" style="stop-color:#E41F1F"/>
			<stop  offset="0.0311" style="stop-color:#E42222"/>
			<stop  offset="0.0535" style="stop-color:#E52B2A"/>
			<stop  offset="0.0733" style="stop-color:#E63B39"/>
			<stop  offset="0.0915" style="stop-color:#E8514E"/>
			<stop  offset="0.1086" style="stop-color:#EB6E69"/>
			<stop  offset="0.1249" style="stop-color:#EE928A"/>
			<stop  offset="0.1403" style="stop-color:#F2BBB0"/>
			<stop  offset="0.1524" style="stop-color:#F5E1D4"/>
			<stop  offset="0.3697" style="stop-color:#EF9C79"/>
			<stop  offset="0.5818" style="stop-color:#EA7B51"/>
			<stop  offset="0.6285" style="stop-color:#E41F1F"/>
			<stop  offset="1" style="stop-color:#B91C24"/>
		</linearGradient>
		<path fill="url(#SVGID_16_)" d="M141.672,187.248H38.696c-7.438,0-13.469-6.031-13.469-13.469v30.857
			c0,7.439,6.031,13.469,13.469,13.469h102.976l-15.429-15.429L141.672,187.248z"/>
		<linearGradient id="SVGID_17_" gradientUnits="userSpaceOnUse" x1="25.2275" y1="208.2969" x2="137.6973" y2="208.2969">
			<stop  offset="0" style="stop-color:#EEDE88"/>
			<stop  offset="0.1291" style="stop-color:#EEDE88"/>
			<stop  offset="0.1343" style="stop-color:#EEDF8D"/>
			<stop  offset="0.1404" style="stop-color:#F0E29B"/>
			<stop  offset="0.1469" style="stop-color:#F1E8B3"/>
			<stop  offset="0.1537" style="stop-color:#F4EFD3"/>
			<stop  offset="0.1599" style="stop-color:#F7F7F8"/>
			<stop  offset="0.3489" style="stop-color:#F9F7D0"/>
			<stop  offset="0.3744" style="stop-color:#F9F5C6"/>
			<stop  offset="0.4179" style="stop-color:#F9F0AA"/>
			<stop  offset="0.4743" style="stop-color:#F9E77E"/>
			<stop  offset="0.5406" style="stop-color:#FADC41"/>
			<stop  offset="0.6042" style="stop-color:#FACF00"/>
			<stop  offset="0.6658" style="stop-color:#FADD4A"/>
			<stop  offset="0.7304" style="stop-color:#F9EB92"/>
			<stop  offset="0.777" style="stop-color:#F9F4BF"/>
			<stop  offset="0.8004" style="stop-color:#F9F7D0"/>
			<stop  offset="0.9002" style="stop-color:#E1C870"/>
			<stop  offset="1" style="stop-color:#CA9A13"/>
		</linearGradient>
		<path fill="url(#SVGID_17_)" d="M137.697,214.13l-2.061-2.06H37.483c-5.958,0-10.952-4.11-12.255-9.606v2.173
			c0,0.628,0.044,1.245,0.128,1.85c0.791,3.246,5.205,7.644,12.127,7.644H137.697z"/>
		<linearGradient id="SVGID_18_" gradientUnits="userSpaceOnUse" x1="126.2437" y1="209.9727" x2="142.5063" y2="209.9727">
			<stop  offset="0" style="stop-color:#851D17"/>
			<stop  offset="0.1689" style="stop-color:#962118"/>
			<stop  offset="0.5037" style="stop-color:#C32C1B"/>
			<stop  offset="0.5969" style="stop-color:#D12F1C"/>
			<stop  offset="0.6298" style="stop-color:#CE2D1D"/>
			<stop  offset="0.841" style="stop-color:#BD2322"/>
			<stop  offset="1" style="stop-color:#B72024"/>
		</linearGradient>
		<polygon fill="url(#SVGID_18_)" points="127.078,201.841 142.506,217.271 141.672,218.105 126.244,202.677 		"/>
		<linearGradient id="SVGID_19_" gradientUnits="userSpaceOnUse" x1="25.2275" y1="174.7305" x2="142.6729" y2="174.7305">
			<stop  offset="0" style="stop-color:#93231D"/>
			<stop  offset="0.201" style="stop-color:#A4261D"/>
			<stop  offset="0.5969" style="stop-color:#D12F1C"/>
			<stop  offset="0.6298" style="stop-color:#CE2D1D"/>
			<stop  offset="0.841" style="stop-color:#BD2322"/>
			<stop  offset="1" style="stop-color:#B72024"/>
		</linearGradient>
		<path fill="url(#SVGID_19_)" d="M39.697,186.245c-7.438,0-13.469-5.628-13.469-12.569c0-4.186,2.196-7.888,5.565-10.171v-1.291
			c-3.932,2.352-6.566,6.65-6.566,11.565c0,7.438,6.031,13.469,13.469,13.469h102.976l1-1.003H39.697z"/>
		<linearGradient id="SVGID_20_" gradientUnits="userSpaceOnUse" x1="25.2275" y1="187.9688" x2="137.6973" y2="187.9688">
			<stop  offset="0" style="stop-color:#EEDE88"/>
			<stop  offset="0.1389" style="stop-color:#EEDE88"/>
			<stop  offset="0.1419" style="stop-color:#EEDF8D"/>
			<stop  offset="0.1454" style="stop-color:#F0E29B"/>
			<stop  offset="0.1492" style="stop-color:#F1E8B3"/>
			<stop  offset="0.1531" style="stop-color:#F4EFD3"/>
			<stop  offset="0.1567" style="stop-color:#F7F7F8"/>
			<stop  offset="0.3489" style="stop-color:#F9F7D0"/>
			<stop  offset="0.3744" style="stop-color:#F9F5C6"/>
			<stop  offset="0.4179" style="stop-color:#F9F0AA"/>
			<stop  offset="0.4743" style="stop-color:#F9E77E"/>
			<stop  offset="0.5406" style="stop-color:#FADC41"/>
			<stop  offset="0.6042" style="stop-color:#FACF00"/>
			<stop  offset="0.6658" style="stop-color:#FADD4A"/>
			<stop  offset="0.7304" style="stop-color:#F9EB92"/>
			<stop  offset="0.777" style="stop-color:#F9F4BF"/>
			<stop  offset="0.8004" style="stop-color:#F9F7D0"/>
			<stop  offset="0.9002" style="stop-color:#E1C870"/>
			<stop  offset="1" style="stop-color:#CA9A13"/>
		</linearGradient>
		<path fill="url(#SVGID_20_)" d="M37.423,191.223c-5.874,0-10.587-4.106-12.196-8.569v2.634c2.194,4.608,7.118,7.996,12.196,7.996
			h98.213l2.061-2.061H37.423z"/>
	</g>
</g>
</svg>
